%TF.GenerationSoftware,KiCad,Pcbnew,10.0.3*%
%TF.CreationDate,2026-05-27T18:36:27+01:00*%
%TF.ProjectId,ODJController,4f444a43-6f6e-4747-926f-6c6c65722e6b,rev?*%
%TF.SameCoordinates,Original*%
%TF.FileFunction,Copper,L1,Top*%
%TF.FilePolarity,Positive*%
%FSLAX46Y46*%
G04 Gerber Fmt 4.6, Leading zero omitted, Abs format (unit mm)*
G04 Created by KiCad (PCBNEW 10.0.3) date 2026-05-27 18:36:27*
%MOMM*%
%LPD*%
G01*
G04 APERTURE LIST*
G04 Aperture macros list*
%AMRoundRect*
0 Rectangle with rounded corners*
0 $1 Rounding radius*
0 $2 $3 $4 $5 $6 $7 $8 $9 X,Y pos of 4 corners*
0 Add a 4 corners polygon primitive as box body*
4,1,4,$2,$3,$4,$5,$6,$7,$8,$9,$2,$3,0*
0 Add four circle primitives for the rounded corners*
1,1,$1+$1,$2,$3*
1,1,$1+$1,$4,$5*
1,1,$1+$1,$6,$7*
1,1,$1+$1,$8,$9*
0 Add four rect primitives between the rounded corners*
20,1,$1+$1,$2,$3,$4,$5,0*
20,1,$1+$1,$4,$5,$6,$7,0*
20,1,$1+$1,$6,$7,$8,$9,0*
20,1,$1+$1,$8,$9,$2,$3,0*%
G04 Aperture macros list end*
%TA.AperFunction,ComponentPad*%
%ADD10C,1.600000*%
%TD*%
%TA.AperFunction,ComponentPad*%
%ADD11O,1.700000X2.000000*%
%TD*%
%TA.AperFunction,ComponentPad*%
%ADD12RoundRect,0.250000X-0.600000X-0.750000X0.600000X-0.750000X0.600000X0.750000X-0.600000X0.750000X0*%
%TD*%
%TA.AperFunction,ComponentPad*%
%ADD13O,1.700000X1.950000*%
%TD*%
%TA.AperFunction,ComponentPad*%
%ADD14RoundRect,0.250000X-0.600000X-0.725000X0.600000X-0.725000X0.600000X0.725000X-0.600000X0.725000X0*%
%TD*%
%TA.AperFunction,ComponentPad*%
%ADD15RoundRect,0.250000X-0.550000X-0.550000X0.550000X-0.550000X0.550000X0.550000X-0.550000X0.550000X0*%
%TD*%
%TA.AperFunction,ComponentPad*%
%ADD16R,1.700000X1.700000*%
%TD*%
%TA.AperFunction,ComponentPad*%
%ADD17C,1.700000*%
%TD*%
%TA.AperFunction,ViaPad*%
%ADD18C,0.600000*%
%TD*%
%TA.AperFunction,Conductor*%
%ADD19C,0.200000*%
%TD*%
G04 APERTURE END LIST*
D10*
%TO.P,R4,2*%
%TO.N,LED_B_HPCUE*%
X105000000Y-134920000D03*
%TO.P,R4,1*%
%TO.N,LED_B_HPCUE_GP*%
X105000000Y-145080000D03*
%TD*%
%TO.P,R3,2*%
%TO.N,LED_B_PLAY*%
X105000000Y-119840000D03*
%TO.P,R3,1*%
%TO.N,LED_B_PLAY_GP*%
X105000000Y-130000000D03*
%TD*%
D11*
%TO.P,J30,2*%
%TO.N,GND*%
X115000000Y-130000000D03*
D12*
%TO.P,J30,1*%
%TO.N,LED_B_HPCUE*%
X112500000Y-130000000D03*
%TD*%
D10*
%TO.P,R2,1*%
%TO.N,LED_A_HPCUE_GP*%
X60000000Y-119920000D03*
%TO.P,R2,2*%
%TO.N,LED_A_HPCUE*%
X60000000Y-130080000D03*
%TD*%
D11*
%TO.P,J21,2*%
%TO.N,GND*%
X115000000Y-100000000D03*
D12*
%TO.P,J21,1*%
%TO.N,BTN_B_CUE*%
X112500000Y-100000000D03*
%TD*%
D11*
%TO.P,J20,2*%
%TO.N,GND*%
X115000000Y-90000000D03*
D12*
%TO.P,J20,1*%
%TO.N,BTN_B_PLAY*%
X112500000Y-90000000D03*
%TD*%
D11*
%TO.P,J22,2*%
%TO.N,GND*%
X115000000Y-110000000D03*
D12*
%TO.P,J22,1*%
%TO.N,BTN_B_HPCUE*%
X112500000Y-110000000D03*
%TD*%
%TO.P,J18,1*%
%TO.N,BTN_A_CUE*%
X70000000Y-100000000D03*
D11*
%TO.P,J18,2*%
%TO.N,GND*%
X72500000Y-100000000D03*
%TD*%
D12*
%TO.P,J17,1*%
%TO.N,BTN_A_PLAY*%
X70000000Y-90000000D03*
D11*
%TO.P,J17,2*%
%TO.N,GND*%
X72500000Y-90000000D03*
%TD*%
D12*
%TO.P,J19,1*%
%TO.N,BTN_A_HPCUE*%
X70000000Y-110000000D03*
D11*
%TO.P,J19,2*%
%TO.N,GND*%
X72500000Y-110000000D03*
%TD*%
D13*
%TO.P,J5,3*%
%TO.N,GND*%
X52500000Y-120000000D03*
%TO.P,J5,2*%
%TO.N,AN_A4_PITCH*%
X50000000Y-120000000D03*
D14*
%TO.P,J5,1*%
%TO.N,+3V3*%
X47500000Y-120000000D03*
%TD*%
D13*
%TO.P,J8,3*%
%TO.N,GND*%
X52500000Y-150000000D03*
%TO.P,J8,2*%
%TO.N,AN_A7_SPARE7*%
X50000000Y-150000000D03*
D14*
%TO.P,J8,1*%
%TO.N,+3V3*%
X47500000Y-150000000D03*
%TD*%
D13*
%TO.P,J6,3*%
%TO.N,GND*%
X52500000Y-130000000D03*
%TO.P,J6,2*%
%TO.N,AN_A5_SPARE5*%
X50000000Y-130000000D03*
D14*
%TO.P,J6,1*%
%TO.N,+3V3*%
X47500000Y-130000000D03*
%TD*%
D13*
%TO.P,J7,3*%
%TO.N,GND*%
X52500000Y-140000000D03*
%TO.P,J7,2*%
%TO.N,AN_A6_SPARE6*%
X50000000Y-140000000D03*
D14*
%TO.P,J7,1*%
%TO.N,+3V3*%
X47500000Y-140000000D03*
%TD*%
D13*
%TO.P,J2,3*%
%TO.N,GND*%
X52500000Y-80000000D03*
%TO.P,J2,2*%
%TO.N,AN_A1_EQ_MID*%
X50000000Y-80000000D03*
D14*
%TO.P,J2,1*%
%TO.N,+3V3*%
X47500000Y-80000000D03*
%TD*%
D13*
%TO.P,J4,3*%
%TO.N,GND*%
X52500000Y-100000000D03*
%TO.P,J4,2*%
%TO.N,AN_A3_VOLUME*%
X50000000Y-100000000D03*
D14*
%TO.P,J4,1*%
%TO.N,+3V3*%
X47500000Y-100000000D03*
%TD*%
D13*
%TO.P,J1,3*%
%TO.N,GND*%
X52500000Y-70000000D03*
%TO.P,J1,2*%
%TO.N,AN_A0_EQ_LOW*%
X50000000Y-70000000D03*
D14*
%TO.P,J1,1*%
%TO.N,+3V3*%
X47500000Y-70000000D03*
%TD*%
D13*
%TO.P,J3,3*%
%TO.N,GND*%
X52500000Y-90000000D03*
%TO.P,J3,2*%
%TO.N,AN_A2_EQ_HIGH*%
X50000000Y-90000000D03*
D14*
%TO.P,J3,1*%
%TO.N,+3V3*%
X47500000Y-90000000D03*
%TD*%
D13*
%TO.P,J25,4*%
%TO.N,GND*%
X52750000Y-110000000D03*
%TO.P,J25,3*%
%TO.N,ENCA_B*%
X50250000Y-110000000D03*
%TO.P,J25,2*%
%TO.N,ENCA_A*%
X47750000Y-110000000D03*
D14*
%TO.P,J25,1*%
%TO.N,+5V*%
X45250000Y-110000000D03*
%TD*%
D10*
%TO.P,C2,2*%
%TO.N,GND*%
X90457500Y-42500000D03*
%TO.P,C2,1*%
%TO.N,+3V3*%
X90457500Y-37500000D03*
%TD*%
D15*
%TO.P,C3,1*%
%TO.N,+3V3*%
X58794888Y-75500000D03*
D10*
%TO.P,C3,2*%
%TO.N,GND*%
X61294888Y-75500000D03*
%TD*%
%TO.P,C1,1*%
%TO.N,+3V3*%
X35500000Y-37000000D03*
%TO.P,C1,2*%
%TO.N,GND*%
X35500000Y-42000000D03*
%TD*%
D12*
%TO.P,J23,1*%
%TO.N,BTN_A_SYNC*%
X70000000Y-120000000D03*
D11*
%TO.P,J23,2*%
%TO.N,GND*%
X72500000Y-120000000D03*
%TD*%
D12*
%TO.P,J24,1*%
%TO.N,BTN_B_SYNC*%
X112500000Y-120000000D03*
D11*
%TO.P,J24,2*%
%TO.N,GND*%
X115000000Y-120000000D03*
%TD*%
D12*
%TO.P,J27,1*%
%TO.N,LED_A_PLAY*%
X70000000Y-140000000D03*
D11*
%TO.P,J27,2*%
%TO.N,GND*%
X72500000Y-140000000D03*
%TD*%
D12*
%TO.P,J28,1*%
%TO.N,LED_A_HPCUE*%
X70000000Y-130000000D03*
D11*
%TO.P,J28,2*%
%TO.N,GND*%
X72500000Y-130000000D03*
%TD*%
D12*
%TO.P,J29,1*%
%TO.N,LED_B_PLAY*%
X112500000Y-140000000D03*
D11*
%TO.P,J29,2*%
%TO.N,GND*%
X115000000Y-140000000D03*
%TD*%
D14*
%TO.P,J10,1*%
%TO.N,+3V3*%
X92500000Y-80000000D03*
D13*
%TO.P,J10,2*%
%TO.N,AN_B1_EQ_MID*%
X95000000Y-80000000D03*
%TO.P,J10,3*%
%TO.N,GND*%
X97500000Y-80000000D03*
%TD*%
D14*
%TO.P,J11,1*%
%TO.N,+3V3*%
X92500000Y-90000000D03*
D13*
%TO.P,J11,2*%
%TO.N,AN_B2_EQ_HIGH*%
X95000000Y-90000000D03*
%TO.P,J11,3*%
%TO.N,GND*%
X97500000Y-90000000D03*
%TD*%
D14*
%TO.P,J12,1*%
%TO.N,+3V3*%
X92500000Y-100000000D03*
D13*
%TO.P,J12,2*%
%TO.N,AN_B3_VOLUME*%
X95000000Y-100000000D03*
%TO.P,J12,3*%
%TO.N,GND*%
X97500000Y-100000000D03*
%TD*%
D14*
%TO.P,J13,1*%
%TO.N,+3V3*%
X92500000Y-120000000D03*
D13*
%TO.P,J13,2*%
%TO.N,AN_B4_PITCH*%
X95000000Y-120000000D03*
%TO.P,J13,3*%
%TO.N,GND*%
X97500000Y-120000000D03*
%TD*%
D14*
%TO.P,J9,1*%
%TO.N,+3V3*%
X92500000Y-70000000D03*
D13*
%TO.P,J9,2*%
%TO.N,AN_B0_EQ_LOW*%
X95000000Y-70000000D03*
%TO.P,J9,3*%
%TO.N,GND*%
X97500000Y-70000000D03*
%TD*%
D14*
%TO.P,J16,1*%
%TO.N,+3V3*%
X92500000Y-150000000D03*
D13*
%TO.P,J16,2*%
%TO.N,AN_B7_SPARE7*%
X95000000Y-150000000D03*
%TO.P,J16,3*%
%TO.N,GND*%
X97500000Y-150000000D03*
%TD*%
D14*
%TO.P,J14,1*%
%TO.N,+3V3*%
X92500000Y-130000000D03*
D13*
%TO.P,J14,2*%
%TO.N,AN_B5_SPARE5*%
X95000000Y-130000000D03*
%TO.P,J14,3*%
%TO.N,GND*%
X97500000Y-130000000D03*
%TD*%
D14*
%TO.P,J15,1*%
%TO.N,+3V3*%
X92500000Y-140000000D03*
D13*
%TO.P,J15,2*%
%TO.N,AN_B6_SPARE6*%
X95000000Y-140000000D03*
%TO.P,J15,3*%
%TO.N,GND*%
X97500000Y-140000000D03*
%TD*%
D14*
%TO.P,J26,1*%
%TO.N,+5V*%
X90000000Y-110000000D03*
D13*
%TO.P,J26,2*%
%TO.N,ENCB_A*%
X92500000Y-110000000D03*
%TO.P,J26,3*%
%TO.N,ENCB_B*%
X95000000Y-110000000D03*
%TO.P,J26,4*%
%TO.N,GND*%
X97500000Y-110000000D03*
%TD*%
D16*
%TO.P,J32,1*%
%TO.N,+3V3*%
X82500000Y-88690000D03*
D17*
%TO.P,J32,2*%
%TO.N,SP_GP0*%
X82500000Y-91230000D03*
%TO.P,J32,3*%
%TO.N,SP_GP1*%
X82500000Y-93770000D03*
%TO.P,J32,4*%
%TO.N,GND*%
X82500000Y-96310000D03*
%TD*%
D16*
%TO.P,J31,1*%
%TO.N,+3V3*%
X82500000Y-106070000D03*
D17*
%TO.P,J31,2*%
%TO.N,+5V*%
X82500000Y-108610000D03*
%TO.P,J31,3*%
%TO.N,GND*%
X82500000Y-111150000D03*
%TO.P,J31,4*%
%TO.N,SP_GP0*%
X82500000Y-113690000D03*
%TO.P,J31,5*%
%TO.N,SP_GP1*%
X82500000Y-116230000D03*
%TO.P,J31,6*%
%TO.N,SP_GP4*%
X82500000Y-118770000D03*
%TO.P,J31,7*%
%TO.N,SP_GP5*%
X82500000Y-121310000D03*
%TO.P,J31,8*%
%TO.N,SP_GP28*%
X82500000Y-123850000D03*
%TO.P,J31,9*%
%TO.N,GND*%
X82500000Y-126390000D03*
%TO.P,J31,10*%
%TO.N,+3V3*%
X82500000Y-128930000D03*
%TD*%
D10*
%TO.P,R1,1*%
%TO.N,LED_A_PLAY_GP*%
X60000000Y-135000000D03*
%TO.P,R1,2*%
%TO.N,LED_A_PLAY*%
X60000000Y-145160000D03*
%TD*%
D16*
%TO.P,U2,1*%
%TO.N,GND*%
X58042500Y-32300000D03*
D17*
%TO.P,U2,2*%
%TO.N,+3V3*%
X58042500Y-34840000D03*
%TO.P,U2,3*%
%TO.N,GND*%
X58042500Y-37380000D03*
%TO.P,U2,4*%
%TO.N,AN_A0_EQ_LOW*%
X58042500Y-39920000D03*
%TO.P,U2,5*%
%TO.N,AN_A1_EQ_MID*%
X58042500Y-42460000D03*
%TO.P,U2,6*%
%TO.N,AN_A2_EQ_HIGH*%
X58042500Y-45000000D03*
%TO.P,U2,7*%
%TO.N,AN_A3_VOLUME*%
X58042500Y-47540000D03*
%TO.P,U2,8*%
%TO.N,AN_A4_PITCH*%
X58042500Y-50080000D03*
%TO.P,U2,9*%
%TO.N,AN_A5_SPARE5*%
X58042500Y-52620000D03*
%TO.P,U2,10*%
%TO.N,AN_A6_SPARE6*%
X58042500Y-55160000D03*
%TO.P,U2,11*%
%TO.N,AN_A7_SPARE7*%
X58042500Y-57700000D03*
%TO.P,U2,12*%
%TO.N,GND*%
X41532500Y-34840000D03*
%TO.P,U2,13*%
%TO.N,+3V3*%
X41532500Y-37380000D03*
%TO.P,U2,14*%
%TO.N,GND*%
X41532500Y-39920000D03*
%TO.P,U2,15*%
%TO.N,MUXA_Z*%
X41532500Y-42460000D03*
%TO.P,U2,16*%
%TO.N,MUX_S0*%
X41532500Y-45000000D03*
%TO.P,U2,17*%
%TO.N,MUX_S1*%
X41532500Y-47540000D03*
%TO.P,U2,18*%
%TO.N,MUX_S2*%
X41532500Y-50080000D03*
%TO.P,U2,19*%
%TO.N,GND*%
X41532500Y-52620000D03*
%TD*%
D16*
%TO.P,U3,1*%
%TO.N,GND*%
X112500000Y-32300000D03*
D17*
%TO.P,U3,2*%
%TO.N,+3V3*%
X112500000Y-34840000D03*
%TO.P,U3,3*%
%TO.N,GND*%
X112500000Y-37380000D03*
%TO.P,U3,4*%
%TO.N,AN_B0_EQ_LOW*%
X112500000Y-39920000D03*
%TO.P,U3,5*%
%TO.N,AN_B1_EQ_MID*%
X112500000Y-42460000D03*
%TO.P,U3,6*%
%TO.N,AN_B2_EQ_HIGH*%
X112500000Y-45000000D03*
%TO.P,U3,7*%
%TO.N,AN_B3_VOLUME*%
X112500000Y-47540000D03*
%TO.P,U3,8*%
%TO.N,AN_B4_PITCH*%
X112500000Y-50080000D03*
%TO.P,U3,9*%
%TO.N,AN_B5_SPARE5*%
X112500000Y-52620000D03*
%TO.P,U3,10*%
%TO.N,AN_B6_SPARE6*%
X112500000Y-55160000D03*
%TO.P,U3,11*%
%TO.N,AN_B7_SPARE7*%
X112500000Y-57700000D03*
%TO.P,U3,12*%
%TO.N,GND*%
X95990000Y-34840000D03*
%TO.P,U3,13*%
%TO.N,+3V3*%
X95990000Y-37380000D03*
%TO.P,U3,14*%
%TO.N,GND*%
X95990000Y-39920000D03*
%TO.P,U3,15*%
%TO.N,MUXB_Z*%
X95990000Y-42460000D03*
%TO.P,U3,16*%
%TO.N,MUX_S0*%
X95990000Y-45000000D03*
%TO.P,U3,17*%
%TO.N,MUX_S1*%
X95990000Y-47540000D03*
%TO.P,U3,18*%
%TO.N,MUX_S2*%
X95990000Y-50080000D03*
%TO.P,U3,19*%
%TO.N,GND*%
X95990000Y-52620000D03*
%TD*%
D16*
%TO.P,U1,1*%
%TO.N,SP_GP0*%
X65660000Y-30870000D03*
D17*
%TO.P,U1,2*%
%TO.N,SP_GP1*%
X65660000Y-33410000D03*
%TO.P,U1,3*%
%TO.N,GND*%
X65660000Y-35950000D03*
%TO.P,U1,4*%
%TO.N,BTN_A_SYNC*%
X65660000Y-38490000D03*
%TO.P,U1,5*%
%TO.N,BTN_B_SYNC*%
X65660000Y-41030000D03*
%TO.P,U1,6*%
%TO.N,SP_GP4*%
X65660000Y-43570000D03*
%TO.P,U1,7*%
%TO.N,SP_GP5*%
X65660000Y-46110000D03*
%TO.P,U1,8*%
%TO.N,GND*%
X65660000Y-48650000D03*
%TO.P,U1,9*%
%TO.N,MUX_S0*%
X65660000Y-51190000D03*
%TO.P,U1,10*%
%TO.N,MUX_S1*%
X65660000Y-53730000D03*
%TO.P,U1,11*%
%TO.N,MUX_S2*%
X65660000Y-56270000D03*
%TO.P,U1,12*%
%TO.N,LED_B_HPCUE_GP*%
X65660000Y-58810000D03*
%TO.P,U1,13*%
%TO.N,GND*%
X65660000Y-61350000D03*
%TO.P,U1,14*%
%TO.N,BTN_A_PLAY*%
X65660000Y-63890000D03*
%TO.P,U1,15*%
%TO.N,BTN_A_CUE*%
X65660000Y-66430000D03*
%TO.P,U1,16*%
%TO.N,BTN_A_HPCUE*%
X65660000Y-68970000D03*
%TO.P,U1,17*%
%TO.N,BTN_B_PLAY*%
X65660000Y-71510000D03*
%TO.P,U1,18*%
%TO.N,GND*%
X65660000Y-74050000D03*
%TO.P,U1,19*%
%TO.N,ENCA_A*%
X65660000Y-76590000D03*
%TO.P,U1,20*%
%TO.N,ENCA_B*%
X65660000Y-79130000D03*
%TO.P,U1,21*%
%TO.N,ENCB_A*%
X83440000Y-79130000D03*
%TO.P,U1,22*%
%TO.N,ENCB_B*%
X83440000Y-76590000D03*
%TO.P,U1,23*%
%TO.N,GND*%
X83440000Y-74050000D03*
%TO.P,U1,24*%
%TO.N,LED_A_PLAY_GP*%
X83440000Y-71510000D03*
%TO.P,U1,25*%
%TO.N,BTN_B_CUE*%
X83440000Y-68970000D03*
%TO.P,U1,26*%
%TO.N,BTN_B_HPCUE*%
X83440000Y-66430000D03*
%TO.P,U1,27*%
%TO.N,LED_B_PLAY_GP*%
X83440000Y-63890000D03*
%TO.P,U1,28*%
%TO.N,GND*%
X83440000Y-61350000D03*
%TO.P,U1,29*%
%TO.N,LED_A_HPCUE_GP*%
X83440000Y-58810000D03*
%TO.P,U1,30*%
%TO.N,N/C*%
X83440000Y-56270000D03*
%TO.P,U1,31*%
%TO.N,MUXA_Z*%
X83440000Y-53730000D03*
%TO.P,U1,32*%
%TO.N,MUXB_Z*%
X83440000Y-51190000D03*
%TO.P,U1,33*%
%TO.N,GND*%
X83440000Y-48650000D03*
%TO.P,U1,34*%
%TO.N,SP_GP28*%
X83440000Y-46110000D03*
%TO.P,U1,35*%
%TO.N,N/C*%
X83440000Y-43570000D03*
%TO.P,U1,36*%
%TO.N,+3V3*%
X83440000Y-41030000D03*
%TO.P,U1,37*%
%TO.N,N/C*%
X83440000Y-38490000D03*
%TO.P,U1,38*%
%TO.N,GND*%
X83440000Y-35950000D03*
%TO.P,U1,39*%
%TO.N,N/C*%
X83440000Y-33410000D03*
%TO.P,U1,40*%
%TO.N,+5V*%
X83440000Y-30870000D03*
%TD*%
D18*
%TO.N,GND*%
X70688908Y-78061092D03*
%TO.N,SP_GP0*%
X80000000Y-36000000D03*
%TO.N,SP_GP1*%
X70000000Y-39000000D03*
X79000000Y-39000000D03*
%TO.N,+5V*%
X77000000Y-102300000D03*
%TO.N,SP_GP1*%
X80000000Y-114000000D03*
X80750000Y-93770000D03*
%TO.N,SP_GP5*%
X66162082Y-116162083D03*
%TO.N,+3V3*%
X85000000Y-106000000D03*
X85000000Y-100000000D03*
%TO.N,ENCB_A*%
X87000000Y-103000000D03*
%TD*%
%TO.N,GND*%
D19*
X70688908Y-66378908D02*
X70688908Y-78061092D01*
X65660000Y-61350000D02*
X70688908Y-66378908D01*
X65660000Y-48650000D02*
X68000000Y-50990000D01*
X68000000Y-50990000D02*
X68000000Y-59010000D01*
X68000000Y-59010000D02*
X65660000Y-61350000D01*
X65660000Y-48650000D02*
X66810000Y-47500000D01*
X66136346Y-44720000D02*
X65183654Y-44720000D01*
X66810000Y-47500000D02*
X66810000Y-45393654D01*
X66810000Y-45393654D02*
X66136346Y-44720000D01*
X65183654Y-44720000D02*
X64000000Y-43536346D01*
X64000000Y-37610000D02*
X65660000Y-35950000D01*
X64000000Y-43536346D02*
X64000000Y-37610000D01*
%TO.N,SP_GP0*%
X81350000Y-37350000D02*
X80000000Y-36000000D01*
X81350000Y-90080000D02*
X81350000Y-37350000D01*
X82500000Y-91230000D02*
X81350000Y-90080000D01*
%TO.N,SP_GP1*%
X70000000Y-39000000D02*
X70000000Y-37750000D01*
X80750000Y-93770000D02*
X80750000Y-40750000D01*
X80750000Y-40750000D02*
X79000000Y-39000000D01*
X70000000Y-37750000D02*
X65660000Y-33410000D01*
%TO.N,+5V*%
X77000000Y-37310000D02*
X83440000Y-30870000D01*
X77000000Y-102300000D02*
X77000000Y-37310000D01*
%TO.N,SP_GP1*%
X80000000Y-94520000D02*
X80750000Y-93770000D01*
X80000000Y-114000000D02*
X80000000Y-94520000D01*
%TO.N,SP_GP5*%
X66810000Y-115514165D02*
X66810000Y-70793654D01*
X66162082Y-116162083D02*
X66810000Y-115514165D01*
X64510000Y-47260000D02*
X65660000Y-46110000D01*
X66810000Y-70793654D02*
X66136346Y-70120000D01*
X66136346Y-70120000D02*
X65183654Y-70120000D01*
X65183654Y-70120000D02*
X64510000Y-69446346D01*
X64510000Y-69446346D02*
X64510000Y-47260000D01*
%TO.N,+3V3*%
X85000000Y-100000000D02*
X85000000Y-106000000D01*
%TO.N,ENCB_A*%
X87000000Y-103000000D02*
X87000000Y-82690000D01*
X87000000Y-82690000D02*
X83440000Y-79130000D01*
%TO.N,GND*%
X97500000Y-70000000D02*
X96225000Y-71275000D01*
X96225000Y-71275000D02*
X94523654Y-71275000D01*
X94523654Y-71275000D02*
X93850000Y-70601346D01*
X93850000Y-70601346D02*
X93850000Y-54760000D01*
X93850000Y-54760000D02*
X95990000Y-52620000D01*
X97500000Y-80000000D02*
X96225000Y-81275000D01*
X96225000Y-81275000D02*
X94523654Y-81275000D01*
X94523654Y-81275000D02*
X93850000Y-80601346D01*
X93850000Y-80601346D02*
X93850000Y-73650000D01*
X93850000Y-73650000D02*
X97500000Y-70000000D01*
X97500000Y-90000000D02*
X96225000Y-91275000D01*
X96225000Y-91275000D02*
X94523654Y-91275000D01*
X93850000Y-83650000D02*
X97500000Y-80000000D01*
X94523654Y-91275000D02*
X93850000Y-90601346D01*
X93850000Y-90601346D02*
X93850000Y-83650000D01*
X97500000Y-100000000D02*
X96225000Y-101275000D01*
X96225000Y-101275000D02*
X94523654Y-101275000D01*
X94523654Y-101275000D02*
X93850000Y-100601346D01*
X93850000Y-100601346D02*
X93850000Y-93650000D01*
X93850000Y-93650000D02*
X97500000Y-90000000D01*
X97500000Y-110000000D02*
X97500000Y-100000000D01*
X97500000Y-130000000D02*
X97500000Y-120000000D01*
X97500000Y-140000000D02*
X96225000Y-141275000D01*
X96225000Y-141275000D02*
X94523654Y-141275000D01*
X94523654Y-141275000D02*
X93850000Y-140601346D01*
X93850000Y-140601346D02*
X93850000Y-133650000D01*
X93850000Y-133650000D02*
X97500000Y-130000000D01*
X97500000Y-150000000D02*
X96225000Y-151275000D01*
X93850000Y-143650000D02*
X97500000Y-140000000D01*
X96225000Y-151275000D02*
X94523654Y-151275000D01*
X94523654Y-151275000D02*
X93850000Y-150601346D01*
X93850000Y-150601346D02*
X93850000Y-143650000D01*
%TO.N,SP_GP4*%
X82500000Y-118770000D02*
X73650000Y-109920000D01*
X64510000Y-38013654D02*
X64510000Y-42420000D01*
X73650000Y-109920000D02*
X73650000Y-44853654D01*
X73650000Y-44853654D02*
X66136346Y-37340000D01*
X66136346Y-37340000D02*
X65183654Y-37340000D01*
X65183654Y-37340000D02*
X64510000Y-38013654D01*
X64510000Y-42420000D02*
X65660000Y-43570000D01*
%TO.N,SP_GP0*%
X82500000Y-91230000D02*
X81350000Y-92380000D01*
X81350000Y-92380000D02*
X81350000Y-112540000D01*
X81350000Y-112540000D02*
X82500000Y-113690000D01*
%TO.N,+3V3*%
X92500000Y-80000000D02*
X92500000Y-70000000D01*
X82500000Y-88690000D02*
X81890000Y-88080000D01*
X81890000Y-88080000D02*
X81890000Y-71433654D01*
X81890000Y-71433654D02*
X82963654Y-70360000D01*
X82963654Y-70360000D02*
X83916346Y-70360000D01*
X83916346Y-70360000D02*
X92500000Y-78943654D01*
X92500000Y-78943654D02*
X92500000Y-80000000D01*
%TO.N,GND*%
X112976346Y-33690000D02*
X113650000Y-34363654D01*
X113650000Y-34363654D02*
X113650000Y-36230000D01*
X113650000Y-36230000D02*
X112500000Y-37380000D01*
%TO.N,LED_B_HPCUE*%
X105000000Y-134920000D02*
X111380000Y-141300000D01*
X111380000Y-141300000D02*
X113334744Y-141300000D01*
X113334744Y-141300000D02*
X113650000Y-140984744D01*
X113650000Y-140984744D02*
X113650000Y-131150000D01*
X113650000Y-131150000D02*
X112500000Y-130000000D01*
%TO.N,LED_B_PLAY*%
X112500000Y-140000000D02*
X112500000Y-132134744D01*
X112500000Y-132134744D02*
X105000000Y-124634744D01*
X105000000Y-124634744D02*
X105000000Y-119840000D01*
%TO.N,ENCA_A*%
X47750000Y-110000000D02*
X51350000Y-113600000D01*
X51350000Y-113600000D02*
X51350000Y-150601346D01*
X51350000Y-150601346D02*
X52023654Y-151275000D01*
X52023654Y-151275000D02*
X52976346Y-151275000D01*
X55250000Y-87000000D02*
X65660000Y-76590000D01*
X52976346Y-151275000D02*
X55250000Y-149001346D01*
X55250000Y-149001346D02*
X55250000Y-87000000D01*
%TO.N,AN_A2_EQ_HIGH*%
X50000000Y-90000000D02*
X48850000Y-88850000D01*
X48850000Y-88850000D02*
X48850000Y-47486154D01*
X48850000Y-47486154D02*
X57566154Y-38770000D01*
X57566154Y-38770000D02*
X58518846Y-38770000D01*
X58518846Y-38770000D02*
X59192500Y-39443654D01*
X59192500Y-39443654D02*
X59192500Y-43850000D01*
X59192500Y-43850000D02*
X58042500Y-45000000D01*
%TO.N,AN_A1_EQ_MID*%
X50000000Y-80000000D02*
X51350000Y-78650000D01*
X51350000Y-78650000D02*
X51350000Y-49152500D01*
X51350000Y-49152500D02*
X58042500Y-42460000D01*
%TO.N,GND*%
X95990000Y-34840000D02*
X94880000Y-35950000D01*
X94880000Y-35950000D02*
X83440000Y-35950000D01*
X90457500Y-42500000D02*
X93300000Y-42500000D01*
X95990000Y-52620000D02*
X93300000Y-49930000D01*
X93300000Y-49930000D02*
X93300000Y-42500000D01*
X93300000Y-42500000D02*
X93410000Y-42500000D01*
X93410000Y-42500000D02*
X95990000Y-39920000D01*
%TO.N,+3V3*%
X90457500Y-37500000D02*
X95870000Y-37500000D01*
X95870000Y-37500000D02*
X95990000Y-37380000D01*
X83440000Y-41030000D02*
X86970000Y-37500000D01*
X86970000Y-37500000D02*
X90457500Y-37500000D01*
%TO.N,GND*%
X113650000Y-36230000D02*
X113650000Y-33450000D01*
X113650000Y-33450000D02*
X112500000Y-32300000D01*
X112976346Y-33690000D02*
X97140000Y-33690000D01*
X97140000Y-33690000D02*
X95990000Y-34840000D01*
%TO.N,+3V3*%
X112500000Y-34840000D02*
X98530000Y-34840000D01*
X98530000Y-34840000D02*
X95990000Y-37380000D01*
%TO.N,LED_A_PLAY_GP*%
X60000000Y-135000000D02*
X68323654Y-135000000D01*
X68323654Y-135000000D02*
X71350000Y-138026346D01*
X71350000Y-138026346D02*
X71350000Y-140626346D01*
X71350000Y-140626346D02*
X72023654Y-141300000D01*
X72023654Y-141300000D02*
X72976346Y-141300000D01*
X72976346Y-141300000D02*
X73650000Y-140626346D01*
X73650000Y-140626346D02*
X73650000Y-135913654D01*
X73650000Y-135913654D02*
X82023654Y-127540000D01*
X82023654Y-127540000D02*
X82976346Y-127540000D01*
X82976346Y-127540000D02*
X83650000Y-126866346D01*
X83650000Y-126866346D02*
X83650000Y-87540000D01*
X83650000Y-87540000D02*
X82290000Y-86180000D01*
X82290000Y-86180000D02*
X82290000Y-72660000D01*
X82290000Y-72660000D02*
X83440000Y-71510000D01*
%TO.N,BTN_A_SYNC*%
X70000000Y-120000000D02*
X71350000Y-118650000D01*
X71350000Y-118650000D02*
X71350000Y-44180000D01*
X71350000Y-44180000D02*
X65660000Y-38490000D01*
%TO.N,BTN_A_HPCUE*%
X70000000Y-110000000D02*
X68450000Y-108450000D01*
X68450000Y-108450000D02*
X68450000Y-71760000D01*
X68450000Y-71760000D02*
X65660000Y-68970000D01*
%TO.N,BTN_A_CUE*%
X70000000Y-100000000D02*
X68850000Y-98850000D01*
X68850000Y-98850000D02*
X68850000Y-69620000D01*
X68850000Y-69620000D02*
X65660000Y-66430000D01*
%TO.N,BTN_A_PLAY*%
X70000000Y-90000000D02*
X70000000Y-68230000D01*
X70000000Y-68230000D02*
X65660000Y-63890000D01*
%TO.N,AN_B7_SPARE7*%
X113650000Y-90984744D02*
X113650000Y-89015256D01*
X113650000Y-98865685D02*
X113650000Y-91134315D01*
X113650000Y-91134315D02*
X113575214Y-91059529D01*
X113575214Y-91059529D02*
X113650000Y-90984744D01*
X113650000Y-103047056D02*
X113650000Y-101134315D01*
X101400000Y-115297057D02*
X113650000Y-103047056D01*
X113575215Y-98940470D02*
X113650000Y-98865685D01*
X113650000Y-99015256D02*
X113575215Y-98940470D01*
X113650000Y-100984744D02*
X113650000Y-99015256D01*
X113575214Y-101059529D02*
X113650000Y-100984744D01*
X113650000Y-101134315D02*
X113575214Y-101059529D01*
X113575215Y-88940470D02*
X113650000Y-88865685D01*
X101400000Y-143600000D02*
X101400000Y-115297057D01*
X95000000Y-150000000D02*
X101400000Y-143600000D01*
X113650000Y-89015256D02*
X113575215Y-88940470D01*
X113650000Y-88865685D02*
X113650000Y-88207968D01*
X102400000Y-67800000D02*
X112500000Y-57700000D01*
X113650000Y-88207968D02*
X102200000Y-76757968D01*
X102200000Y-76757968D02*
X102200000Y-76194110D01*
X102200000Y-76194110D02*
X102400000Y-75994110D01*
X102400000Y-75994110D02*
X102400000Y-67800000D01*
%TO.N,AN_B6_SPARE6*%
X111350000Y-90984744D02*
X111350000Y-89015256D01*
X111665256Y-91300000D02*
X111350000Y-90984744D01*
X113250000Y-98700000D02*
X113250000Y-91300000D01*
X111665256Y-98700000D02*
X113250000Y-98700000D01*
X101800000Y-76923654D02*
X101800000Y-76028426D01*
X113250000Y-91300000D02*
X111665256Y-91300000D01*
X111350000Y-100984744D02*
X111350000Y-99015256D01*
X111350000Y-99015256D02*
X111665256Y-98700000D01*
X111665256Y-101300000D02*
X111350000Y-100984744D01*
X113250000Y-102881371D02*
X113250000Y-101300000D01*
X98650000Y-117481371D02*
X113250000Y-102881371D01*
X113250000Y-101300000D02*
X111665256Y-101300000D01*
X98650000Y-136350000D02*
X98650000Y-117481371D01*
X95000000Y-140000000D02*
X98650000Y-136350000D01*
X111350000Y-89015256D02*
X111665256Y-88700000D01*
X111665256Y-88700000D02*
X113250000Y-88700000D01*
X102000000Y-65660000D02*
X112500000Y-55160000D01*
X113250000Y-88700000D02*
X113250000Y-88373654D01*
X113250000Y-88373654D02*
X101800000Y-76923654D01*
X101800000Y-76028426D02*
X102000000Y-75828425D01*
X102000000Y-75828425D02*
X102000000Y-65660000D01*
%TO.N,AN_B3_VOLUME*%
X95000000Y-100000000D02*
X100200000Y-94800000D01*
X100200000Y-94800000D02*
X100200000Y-85365686D01*
X100200000Y-85365686D02*
X100600000Y-84965685D01*
X100600000Y-84965685D02*
X100600000Y-75531370D01*
X100600000Y-75531370D02*
X100800000Y-75331370D01*
X100800000Y-75331370D02*
X100800000Y-59240000D01*
X100800000Y-59240000D02*
X112500000Y-47540000D01*
%TO.N,AN_B5_SPARE5*%
X95000000Y-130000000D02*
X96150000Y-128850000D01*
X96150000Y-128850000D02*
X96150000Y-119415686D01*
X96150000Y-119415686D02*
X105300000Y-110265685D01*
X105300000Y-90500000D02*
X101150000Y-86350000D01*
X101150000Y-86350000D02*
X101150000Y-85547056D01*
X105300000Y-110265685D02*
X105300000Y-90500000D01*
X101150000Y-85547056D02*
X101400000Y-85297055D01*
X101400000Y-85297055D02*
X101400000Y-75862740D01*
X101400000Y-75862740D02*
X101600000Y-75662740D01*
X101600000Y-75662740D02*
X101600000Y-63520000D01*
X101600000Y-63520000D02*
X112500000Y-52620000D01*
%TO.N,AN_B4_PITCH*%
X95000000Y-120000000D02*
X104900000Y-110100000D01*
X100750000Y-86515686D02*
X100750000Y-85381370D01*
X104900000Y-110100000D02*
X104900000Y-90665686D01*
X101000000Y-85131370D02*
X101000000Y-75697056D01*
X104900000Y-90665686D02*
X100750000Y-86515686D01*
X100750000Y-85381370D02*
X101000000Y-85131370D01*
X101000000Y-75697056D02*
X101200000Y-75497055D01*
X101200000Y-75497055D02*
X101200000Y-61380000D01*
X101200000Y-61380000D02*
X112500000Y-50080000D01*
%TO.N,AN_B2_EQ_HIGH*%
X95000000Y-90000000D02*
X100200000Y-84800000D01*
X100200000Y-84800000D02*
X100200000Y-75365686D01*
X100400000Y-75165685D02*
X100400000Y-57100000D01*
X100200000Y-75365686D02*
X100400000Y-75165685D01*
X100400000Y-57100000D02*
X112500000Y-45000000D01*
%TO.N,+3V3*%
X92500000Y-70000000D02*
X92500000Y-50090000D01*
X92500000Y-50090000D02*
X83440000Y-41030000D01*
%TO.N,AN_A0_EQ_LOW*%
X50000000Y-70000000D02*
X50000000Y-47962500D01*
X50000000Y-47962500D02*
X58042500Y-39920000D01*
%TO.N,+3V3*%
X92500000Y-130000000D02*
X83570000Y-130000000D01*
X83570000Y-130000000D02*
X82500000Y-128930000D01*
%TO.N,GND*%
X72500000Y-130000000D02*
X78890000Y-130000000D01*
X78890000Y-130000000D02*
X82500000Y-126390000D01*
%TO.N,LED_A_HPCUE*%
X60000000Y-130080000D02*
X69920000Y-130080000D01*
X69920000Y-130080000D02*
X70000000Y-130000000D01*
%TO.N,LED_A_PLAY*%
X60000000Y-145160000D02*
X64840000Y-145160000D01*
X64840000Y-145160000D02*
X70000000Y-140000000D01*
%TO.N,GND*%
X72500000Y-130000000D02*
X72500000Y-140000000D01*
X72500000Y-120000000D02*
X72500000Y-130000000D01*
X72500000Y-110000000D02*
X72500000Y-120000000D01*
X72500000Y-100000000D02*
X72500000Y-110000000D01*
X72500000Y-90000000D02*
X72500000Y-100000000D01*
X61294888Y-75500000D02*
X64210000Y-75500000D01*
X64210000Y-75500000D02*
X65660000Y-74050000D01*
X52500000Y-80000000D02*
X56794888Y-80000000D01*
X56794888Y-80000000D02*
X61294888Y-75500000D01*
X52500000Y-80000000D02*
X52500000Y-70000000D01*
X52500000Y-90000000D02*
X52500000Y-80000000D01*
X52500000Y-100000000D02*
X52500000Y-90000000D01*
X52750000Y-110000000D02*
X52750000Y-100250000D01*
X52750000Y-100250000D02*
X52500000Y-100000000D01*
X52500000Y-120000000D02*
X52500000Y-110250000D01*
X52500000Y-110250000D02*
X52750000Y-110000000D01*
X52500000Y-130000000D02*
X52500000Y-120000000D01*
X52500000Y-140000000D02*
X52500000Y-130000000D01*
X52500000Y-150000000D02*
X52500000Y-140000000D01*
%TO.N,+3V3*%
X47500000Y-140000000D02*
X47500000Y-150000000D01*
X47500000Y-130000000D02*
X47500000Y-140000000D01*
X47500000Y-120000000D02*
X47500000Y-130000000D01*
X47500000Y-100000000D02*
X46400000Y-101100000D01*
X46400000Y-101100000D02*
X46400000Y-118900000D01*
X46400000Y-118900000D02*
X47500000Y-120000000D01*
X47500000Y-90000000D02*
X47500000Y-100000000D01*
X47500000Y-80000000D02*
X47500000Y-90000000D01*
X47500000Y-70000000D02*
X47500000Y-80000000D01*
X92500000Y-140000000D02*
X92500000Y-150000000D01*
X92500000Y-130000000D02*
X92500000Y-140000000D01*
X92500000Y-120000000D02*
X92500000Y-130000000D01*
X92500000Y-100000000D02*
X96150000Y-103650000D01*
X96150000Y-103650000D02*
X96150000Y-116350000D01*
X96150000Y-116350000D02*
X92500000Y-120000000D01*
X92500000Y-90000000D02*
X92500000Y-100000000D01*
X92500000Y-80000000D02*
X92500000Y-90000000D01*
%TO.N,GND*%
X115000000Y-130000000D02*
X115000000Y-140000000D01*
X115000000Y-120000000D02*
X115000000Y-130000000D01*
X115000000Y-110000000D02*
X115000000Y-120000000D01*
X115000000Y-100000000D02*
X115000000Y-110000000D01*
X115000000Y-90000000D02*
X115000000Y-100000000D01*
%TO.N,ENCB_B*%
X95000000Y-110000000D02*
X89800000Y-104800000D01*
X89800000Y-104800000D02*
X89800000Y-82950000D01*
X89800000Y-82950000D02*
X83440000Y-76590000D01*
%TO.N,AN_B1_EQ_MID*%
X95000000Y-80000000D02*
X100000000Y-75000000D01*
X100000000Y-75000000D02*
X100000000Y-54960000D01*
X100000000Y-54960000D02*
X112500000Y-42460000D01*
%TO.N,AN_B0_EQ_LOW*%
X95000000Y-70000000D02*
X95000000Y-57420000D01*
X95000000Y-57420000D02*
X112500000Y-39920000D01*
%TO.N,GND*%
X41532500Y-39920000D02*
X42682500Y-38770000D01*
X42682500Y-38770000D02*
X42682500Y-35990000D01*
X42682500Y-35990000D02*
X41532500Y-34840000D01*
X41532500Y-34840000D02*
X44072500Y-37380000D01*
X44072500Y-37380000D02*
X58042500Y-37380000D01*
X35500000Y-42000000D02*
X39452500Y-42000000D01*
X39452500Y-42000000D02*
X41532500Y-39920000D01*
%TO.N,+3V3*%
X35500000Y-37000000D02*
X41152500Y-37000000D01*
X41152500Y-37000000D02*
X41532500Y-37380000D01*
%TO.N,GND*%
X35500000Y-42000000D02*
X35500000Y-46587500D01*
X35500000Y-46587500D02*
X41532500Y-52620000D01*
X98530000Y-37380000D02*
X112500000Y-37380000D01*
X95990000Y-39920000D02*
X98530000Y-37380000D01*
X82290000Y-47500000D02*
X82290000Y-37100000D01*
X83440000Y-48650000D02*
X82290000Y-47500000D01*
X82290000Y-37100000D02*
X83440000Y-35950000D01*
%TD*%
M02*
