M48
; DRILL file KiCad 10.0.3 date 2026-05-27T18:36:48
; FORMAT={-:-/ absolute / metric / decimal}
; #@! TF.CreationDate,2026-05-27T18:36:48+01:00
; #@! TF.GenerationSoftware,Kicad,Pcbnew,10.0.3
; #@! TF.FileFunction,Plated,1,2,PTH
FMAT,2
METRIC
; #@! TA.AperFunction,Plated,PTH,ViaDrill
T1C0.300
; #@! TA.AperFunction,Plated,PTH,ComponentDrill
T2C0.800
; #@! TA.AperFunction,Plated,PTH,ComponentDrill
T3C0.950
; #@! TA.AperFunction,Plated,PTH,ComponentDrill
T4C1.000
%
G90
G05
T1
X66.162Y-116.162
X70.0Y-39.0
X70.689Y-78.061
X77.0Y-102.3
X79.0Y-39.0
X80.0Y-36.0
X80.0Y-114.0
X80.75Y-93.77
X85.0Y-100.0
X85.0Y-106.0
X87.0Y-103.0
T2
X35.5Y-37.0
X35.5Y-42.0
X58.795Y-75.5
X60.0Y-119.92
X60.0Y-130.08
X60.0Y-135.0
X60.0Y-145.16
X61.295Y-75.5
X90.457Y-37.5
X90.457Y-42.5
X105.0Y-119.84
X105.0Y-130.0
X105.0Y-134.92
X105.0Y-145.08
T3
X45.25Y-110.0
X47.5Y-70.0
X47.5Y-80.0
X47.5Y-90.0
X47.5Y-100.0
X47.5Y-120.0
X47.5Y-130.0
X47.5Y-140.0
X47.5Y-150.0
X47.75Y-110.0
X50.0Y-70.0
X50.0Y-80.0
X50.0Y-90.0
X50.0Y-100.0
X50.0Y-120.0
X50.0Y-130.0
X50.0Y-140.0
X50.0Y-150.0
X50.25Y-110.0
X52.5Y-70.0
X52.5Y-80.0
X52.5Y-90.0
X52.5Y-100.0
X52.5Y-120.0
X52.5Y-130.0
X52.5Y-140.0
X52.5Y-150.0
X52.75Y-110.0
X90.0Y-110.0
X92.5Y-70.0
X92.5Y-80.0
X92.5Y-90.0
X92.5Y-100.0
X92.5Y-110.0
X92.5Y-120.0
X92.5Y-130.0
X92.5Y-140.0
X92.5Y-150.0
X95.0Y-70.0
X95.0Y-80.0
X95.0Y-90.0
X95.0Y-100.0
X95.0Y-110.0
X95.0Y-120.0
X95.0Y-130.0
X95.0Y-140.0
X95.0Y-150.0
X97.5Y-70.0
X97.5Y-80.0
X97.5Y-90.0
X97.5Y-100.0
X97.5Y-110.0
X97.5Y-120.0
X97.5Y-130.0
X97.5Y-140.0
X97.5Y-150.0
T4
X41.532Y-34.84
X41.532Y-37.38
X41.532Y-39.92
X41.532Y-42.46
X41.532Y-45.0
X41.532Y-47.54
X41.532Y-50.08
X41.532Y-52.62
X58.042Y-32.3
X58.042Y-34.84
X58.042Y-37.38
X58.042Y-39.92
X58.042Y-42.46
X58.042Y-45.0
X58.042Y-47.54
X58.042Y-50.08
X58.042Y-52.62
X58.042Y-55.16
X58.042Y-57.7
X65.66Y-30.87
X65.66Y-33.41
X65.66Y-35.95
X65.66Y-38.49
X65.66Y-41.03
X65.66Y-43.57
X65.66Y-46.11
X65.66Y-48.65
X65.66Y-51.19
X65.66Y-53.73
X65.66Y-56.27
X65.66Y-58.81
X65.66Y-61.35
X65.66Y-63.89
X65.66Y-66.43
X65.66Y-68.97
X65.66Y-71.51
X65.66Y-74.05
X65.66Y-76.59
X65.66Y-79.13
X70.0Y-90.0
X70.0Y-100.0
X70.0Y-110.0
X70.0Y-120.0
X70.0Y-130.0
X70.0Y-140.0
X72.5Y-90.0
X72.5Y-100.0
X72.5Y-110.0
X72.5Y-120.0
X72.5Y-130.0
X72.5Y-140.0
X82.5Y-88.69
X82.5Y-91.23
X82.5Y-93.77
X82.5Y-96.31
X82.5Y-106.07
X82.5Y-108.61
X82.5Y-111.15
X82.5Y-113.69
X82.5Y-116.23
X82.5Y-118.77
X82.5Y-121.31
X82.5Y-123.85
X82.5Y-126.39
X82.5Y-128.93
X83.44Y-30.87
X83.44Y-33.41
X83.44Y-35.95
X83.44Y-38.49
X83.44Y-41.03
X83.44Y-43.57
X83.44Y-46.11
X83.44Y-48.65
X83.44Y-51.19
X83.44Y-53.73
X83.44Y-56.27
X83.44Y-58.81
X83.44Y-61.35
X83.44Y-63.89
X83.44Y-66.43
X83.44Y-68.97
X83.44Y-71.51
X83.44Y-74.05
X83.44Y-76.59
X83.44Y-79.13
X95.99Y-34.84
X95.99Y-37.38
X95.99Y-39.92
X95.99Y-42.46
X95.99Y-45.0
X95.99Y-47.54
X95.99Y-50.08
X95.99Y-52.62
X112.5Y-32.3
X112.5Y-34.84
X112.5Y-37.38
X112.5Y-39.92
X112.5Y-42.46
X112.5Y-45.0
X112.5Y-47.54
X112.5Y-50.08
X112.5Y-52.62
X112.5Y-55.16
X112.5Y-57.7
X112.5Y-90.0
X112.5Y-100.0
X112.5Y-110.0
X112.5Y-120.0
X112.5Y-130.0
X112.5Y-140.0
X115.0Y-90.0
X115.0Y-100.0
X115.0Y-110.0
X115.0Y-120.0
X115.0Y-130.0
X115.0Y-140.0
M30
