%TF.GenerationSoftware,KiCad,Pcbnew,10.0.3*%
%TF.CreationDate,2026-05-27T18:36:27+01:00*%
%TF.ProjectId,ODJController,4f444a43-6f6e-4747-926f-6c6c65722e6b,rev?*%
%TF.SameCoordinates,Original*%
%TF.FileFunction,Legend,Top*%
%TF.FilePolarity,Positive*%
%FSLAX46Y46*%
G04 Gerber Fmt 4.6, Leading zero omitted, Abs format (unit mm)*
G04 Created by KiCad (PCBNEW 10.0.3) date 2026-05-27 18:36:27*
%MOMM*%
%LPD*%
G01*
G04 APERTURE LIST*
%ADD10C,0.150000*%
%ADD11C,0.120000*%
%ADD12C,0.300000*%
G04 APERTURE END LIST*
D10*
X103084819Y-140166666D02*
X102608628Y-140499999D01*
X103084819Y-140738094D02*
X102084819Y-140738094D01*
X102084819Y-140738094D02*
X102084819Y-140357142D01*
X102084819Y-140357142D02*
X102132438Y-140261904D01*
X102132438Y-140261904D02*
X102180057Y-140214285D01*
X102180057Y-140214285D02*
X102275295Y-140166666D01*
X102275295Y-140166666D02*
X102418152Y-140166666D01*
X102418152Y-140166666D02*
X102513390Y-140214285D01*
X102513390Y-140214285D02*
X102561009Y-140261904D01*
X102561009Y-140261904D02*
X102608628Y-140357142D01*
X102608628Y-140357142D02*
X102608628Y-140738094D01*
X102418152Y-139309523D02*
X103084819Y-139309523D01*
X102037200Y-139547618D02*
X102751485Y-139785713D01*
X102751485Y-139785713D02*
X102751485Y-139166666D01*
X103084819Y-125086666D02*
X102608628Y-125419999D01*
X103084819Y-125658094D02*
X102084819Y-125658094D01*
X102084819Y-125658094D02*
X102084819Y-125277142D01*
X102084819Y-125277142D02*
X102132438Y-125181904D01*
X102132438Y-125181904D02*
X102180057Y-125134285D01*
X102180057Y-125134285D02*
X102275295Y-125086666D01*
X102275295Y-125086666D02*
X102418152Y-125086666D01*
X102418152Y-125086666D02*
X102513390Y-125134285D01*
X102513390Y-125134285D02*
X102561009Y-125181904D01*
X102561009Y-125181904D02*
X102608628Y-125277142D01*
X102608628Y-125277142D02*
X102608628Y-125658094D01*
X102084819Y-124753332D02*
X102084819Y-124134285D01*
X102084819Y-124134285D02*
X102465771Y-124467618D01*
X102465771Y-124467618D02*
X102465771Y-124324761D01*
X102465771Y-124324761D02*
X102513390Y-124229523D01*
X102513390Y-124229523D02*
X102561009Y-124181904D01*
X102561009Y-124181904D02*
X102656247Y-124134285D01*
X102656247Y-124134285D02*
X102894342Y-124134285D01*
X102894342Y-124134285D02*
X102989580Y-124181904D01*
X102989580Y-124181904D02*
X103037200Y-124229523D01*
X103037200Y-124229523D02*
X103084819Y-124324761D01*
X103084819Y-124324761D02*
X103084819Y-124610475D01*
X103084819Y-124610475D02*
X103037200Y-124705713D01*
X103037200Y-124705713D02*
X102989580Y-124753332D01*
X112940476Y-125904819D02*
X112940476Y-126619104D01*
X112940476Y-126619104D02*
X112892857Y-126761961D01*
X112892857Y-126761961D02*
X112797619Y-126857200D01*
X112797619Y-126857200D02*
X112654762Y-126904819D01*
X112654762Y-126904819D02*
X112559524Y-126904819D01*
X113321429Y-125904819D02*
X113940476Y-125904819D01*
X113940476Y-125904819D02*
X113607143Y-126285771D01*
X113607143Y-126285771D02*
X113750000Y-126285771D01*
X113750000Y-126285771D02*
X113845238Y-126333390D01*
X113845238Y-126333390D02*
X113892857Y-126381009D01*
X113892857Y-126381009D02*
X113940476Y-126476247D01*
X113940476Y-126476247D02*
X113940476Y-126714342D01*
X113940476Y-126714342D02*
X113892857Y-126809580D01*
X113892857Y-126809580D02*
X113845238Y-126857200D01*
X113845238Y-126857200D02*
X113750000Y-126904819D01*
X113750000Y-126904819D02*
X113464286Y-126904819D01*
X113464286Y-126904819D02*
X113369048Y-126857200D01*
X113369048Y-126857200D02*
X113321429Y-126809580D01*
X114559524Y-125904819D02*
X114654762Y-125904819D01*
X114654762Y-125904819D02*
X114750000Y-125952438D01*
X114750000Y-125952438D02*
X114797619Y-126000057D01*
X114797619Y-126000057D02*
X114845238Y-126095295D01*
X114845238Y-126095295D02*
X114892857Y-126285771D01*
X114892857Y-126285771D02*
X114892857Y-126523866D01*
X114892857Y-126523866D02*
X114845238Y-126714342D01*
X114845238Y-126714342D02*
X114797619Y-126809580D01*
X114797619Y-126809580D02*
X114750000Y-126857200D01*
X114750000Y-126857200D02*
X114654762Y-126904819D01*
X114654762Y-126904819D02*
X114559524Y-126904819D01*
X114559524Y-126904819D02*
X114464286Y-126857200D01*
X114464286Y-126857200D02*
X114416667Y-126809580D01*
X114416667Y-126809580D02*
X114369048Y-126714342D01*
X114369048Y-126714342D02*
X114321429Y-126523866D01*
X114321429Y-126523866D02*
X114321429Y-126285771D01*
X114321429Y-126285771D02*
X114369048Y-126095295D01*
X114369048Y-126095295D02*
X114416667Y-126000057D01*
X114416667Y-126000057D02*
X114464286Y-125952438D01*
X114464286Y-125952438D02*
X114559524Y-125904819D01*
X62824819Y-125166666D02*
X62348628Y-125499999D01*
X62824819Y-125738094D02*
X61824819Y-125738094D01*
X61824819Y-125738094D02*
X61824819Y-125357142D01*
X61824819Y-125357142D02*
X61872438Y-125261904D01*
X61872438Y-125261904D02*
X61920057Y-125214285D01*
X61920057Y-125214285D02*
X62015295Y-125166666D01*
X62015295Y-125166666D02*
X62158152Y-125166666D01*
X62158152Y-125166666D02*
X62253390Y-125214285D01*
X62253390Y-125214285D02*
X62301009Y-125261904D01*
X62301009Y-125261904D02*
X62348628Y-125357142D01*
X62348628Y-125357142D02*
X62348628Y-125738094D01*
X61920057Y-124785713D02*
X61872438Y-124738094D01*
X61872438Y-124738094D02*
X61824819Y-124642856D01*
X61824819Y-124642856D02*
X61824819Y-124404761D01*
X61824819Y-124404761D02*
X61872438Y-124309523D01*
X61872438Y-124309523D02*
X61920057Y-124261904D01*
X61920057Y-124261904D02*
X62015295Y-124214285D01*
X62015295Y-124214285D02*
X62110533Y-124214285D01*
X62110533Y-124214285D02*
X62253390Y-124261904D01*
X62253390Y-124261904D02*
X62824819Y-124833332D01*
X62824819Y-124833332D02*
X62824819Y-124214285D01*
X112940476Y-95904819D02*
X112940476Y-96619104D01*
X112940476Y-96619104D02*
X112892857Y-96761961D01*
X112892857Y-96761961D02*
X112797619Y-96857200D01*
X112797619Y-96857200D02*
X112654762Y-96904819D01*
X112654762Y-96904819D02*
X112559524Y-96904819D01*
X113369048Y-96000057D02*
X113416667Y-95952438D01*
X113416667Y-95952438D02*
X113511905Y-95904819D01*
X113511905Y-95904819D02*
X113750000Y-95904819D01*
X113750000Y-95904819D02*
X113845238Y-95952438D01*
X113845238Y-95952438D02*
X113892857Y-96000057D01*
X113892857Y-96000057D02*
X113940476Y-96095295D01*
X113940476Y-96095295D02*
X113940476Y-96190533D01*
X113940476Y-96190533D02*
X113892857Y-96333390D01*
X113892857Y-96333390D02*
X113321429Y-96904819D01*
X113321429Y-96904819D02*
X113940476Y-96904819D01*
X114892857Y-96904819D02*
X114321429Y-96904819D01*
X114607143Y-96904819D02*
X114607143Y-95904819D01*
X114607143Y-95904819D02*
X114511905Y-96047676D01*
X114511905Y-96047676D02*
X114416667Y-96142914D01*
X114416667Y-96142914D02*
X114321429Y-96190533D01*
X112940476Y-85904819D02*
X112940476Y-86619104D01*
X112940476Y-86619104D02*
X112892857Y-86761961D01*
X112892857Y-86761961D02*
X112797619Y-86857200D01*
X112797619Y-86857200D02*
X112654762Y-86904819D01*
X112654762Y-86904819D02*
X112559524Y-86904819D01*
X113369048Y-86000057D02*
X113416667Y-85952438D01*
X113416667Y-85952438D02*
X113511905Y-85904819D01*
X113511905Y-85904819D02*
X113750000Y-85904819D01*
X113750000Y-85904819D02*
X113845238Y-85952438D01*
X113845238Y-85952438D02*
X113892857Y-86000057D01*
X113892857Y-86000057D02*
X113940476Y-86095295D01*
X113940476Y-86095295D02*
X113940476Y-86190533D01*
X113940476Y-86190533D02*
X113892857Y-86333390D01*
X113892857Y-86333390D02*
X113321429Y-86904819D01*
X113321429Y-86904819D02*
X113940476Y-86904819D01*
X114559524Y-85904819D02*
X114654762Y-85904819D01*
X114654762Y-85904819D02*
X114750000Y-85952438D01*
X114750000Y-85952438D02*
X114797619Y-86000057D01*
X114797619Y-86000057D02*
X114845238Y-86095295D01*
X114845238Y-86095295D02*
X114892857Y-86285771D01*
X114892857Y-86285771D02*
X114892857Y-86523866D01*
X114892857Y-86523866D02*
X114845238Y-86714342D01*
X114845238Y-86714342D02*
X114797619Y-86809580D01*
X114797619Y-86809580D02*
X114750000Y-86857200D01*
X114750000Y-86857200D02*
X114654762Y-86904819D01*
X114654762Y-86904819D02*
X114559524Y-86904819D01*
X114559524Y-86904819D02*
X114464286Y-86857200D01*
X114464286Y-86857200D02*
X114416667Y-86809580D01*
X114416667Y-86809580D02*
X114369048Y-86714342D01*
X114369048Y-86714342D02*
X114321429Y-86523866D01*
X114321429Y-86523866D02*
X114321429Y-86285771D01*
X114321429Y-86285771D02*
X114369048Y-86095295D01*
X114369048Y-86095295D02*
X114416667Y-86000057D01*
X114416667Y-86000057D02*
X114464286Y-85952438D01*
X114464286Y-85952438D02*
X114559524Y-85904819D01*
X112940476Y-105904819D02*
X112940476Y-106619104D01*
X112940476Y-106619104D02*
X112892857Y-106761961D01*
X112892857Y-106761961D02*
X112797619Y-106857200D01*
X112797619Y-106857200D02*
X112654762Y-106904819D01*
X112654762Y-106904819D02*
X112559524Y-106904819D01*
X113369048Y-106000057D02*
X113416667Y-105952438D01*
X113416667Y-105952438D02*
X113511905Y-105904819D01*
X113511905Y-105904819D02*
X113750000Y-105904819D01*
X113750000Y-105904819D02*
X113845238Y-105952438D01*
X113845238Y-105952438D02*
X113892857Y-106000057D01*
X113892857Y-106000057D02*
X113940476Y-106095295D01*
X113940476Y-106095295D02*
X113940476Y-106190533D01*
X113940476Y-106190533D02*
X113892857Y-106333390D01*
X113892857Y-106333390D02*
X113321429Y-106904819D01*
X113321429Y-106904819D02*
X113940476Y-106904819D01*
X114321429Y-106000057D02*
X114369048Y-105952438D01*
X114369048Y-105952438D02*
X114464286Y-105904819D01*
X114464286Y-105904819D02*
X114702381Y-105904819D01*
X114702381Y-105904819D02*
X114797619Y-105952438D01*
X114797619Y-105952438D02*
X114845238Y-106000057D01*
X114845238Y-106000057D02*
X114892857Y-106095295D01*
X114892857Y-106095295D02*
X114892857Y-106190533D01*
X114892857Y-106190533D02*
X114845238Y-106333390D01*
X114845238Y-106333390D02*
X114273810Y-106904819D01*
X114273810Y-106904819D02*
X114892857Y-106904819D01*
X70440476Y-95904819D02*
X70440476Y-96619104D01*
X70440476Y-96619104D02*
X70392857Y-96761961D01*
X70392857Y-96761961D02*
X70297619Y-96857200D01*
X70297619Y-96857200D02*
X70154762Y-96904819D01*
X70154762Y-96904819D02*
X70059524Y-96904819D01*
X71440476Y-96904819D02*
X70869048Y-96904819D01*
X71154762Y-96904819D02*
X71154762Y-95904819D01*
X71154762Y-95904819D02*
X71059524Y-96047676D01*
X71059524Y-96047676D02*
X70964286Y-96142914D01*
X70964286Y-96142914D02*
X70869048Y-96190533D01*
X72011905Y-96333390D02*
X71916667Y-96285771D01*
X71916667Y-96285771D02*
X71869048Y-96238152D01*
X71869048Y-96238152D02*
X71821429Y-96142914D01*
X71821429Y-96142914D02*
X71821429Y-96095295D01*
X71821429Y-96095295D02*
X71869048Y-96000057D01*
X71869048Y-96000057D02*
X71916667Y-95952438D01*
X71916667Y-95952438D02*
X72011905Y-95904819D01*
X72011905Y-95904819D02*
X72202381Y-95904819D01*
X72202381Y-95904819D02*
X72297619Y-95952438D01*
X72297619Y-95952438D02*
X72345238Y-96000057D01*
X72345238Y-96000057D02*
X72392857Y-96095295D01*
X72392857Y-96095295D02*
X72392857Y-96142914D01*
X72392857Y-96142914D02*
X72345238Y-96238152D01*
X72345238Y-96238152D02*
X72297619Y-96285771D01*
X72297619Y-96285771D02*
X72202381Y-96333390D01*
X72202381Y-96333390D02*
X72011905Y-96333390D01*
X72011905Y-96333390D02*
X71916667Y-96381009D01*
X71916667Y-96381009D02*
X71869048Y-96428628D01*
X71869048Y-96428628D02*
X71821429Y-96523866D01*
X71821429Y-96523866D02*
X71821429Y-96714342D01*
X71821429Y-96714342D02*
X71869048Y-96809580D01*
X71869048Y-96809580D02*
X71916667Y-96857200D01*
X71916667Y-96857200D02*
X72011905Y-96904819D01*
X72011905Y-96904819D02*
X72202381Y-96904819D01*
X72202381Y-96904819D02*
X72297619Y-96857200D01*
X72297619Y-96857200D02*
X72345238Y-96809580D01*
X72345238Y-96809580D02*
X72392857Y-96714342D01*
X72392857Y-96714342D02*
X72392857Y-96523866D01*
X72392857Y-96523866D02*
X72345238Y-96428628D01*
X72345238Y-96428628D02*
X72297619Y-96381009D01*
X72297619Y-96381009D02*
X72202381Y-96333390D01*
X70440476Y-85904819D02*
X70440476Y-86619104D01*
X70440476Y-86619104D02*
X70392857Y-86761961D01*
X70392857Y-86761961D02*
X70297619Y-86857200D01*
X70297619Y-86857200D02*
X70154762Y-86904819D01*
X70154762Y-86904819D02*
X70059524Y-86904819D01*
X71440476Y-86904819D02*
X70869048Y-86904819D01*
X71154762Y-86904819D02*
X71154762Y-85904819D01*
X71154762Y-85904819D02*
X71059524Y-86047676D01*
X71059524Y-86047676D02*
X70964286Y-86142914D01*
X70964286Y-86142914D02*
X70869048Y-86190533D01*
X71773810Y-85904819D02*
X72440476Y-85904819D01*
X72440476Y-85904819D02*
X72011905Y-86904819D01*
X70440476Y-105904819D02*
X70440476Y-106619104D01*
X70440476Y-106619104D02*
X70392857Y-106761961D01*
X70392857Y-106761961D02*
X70297619Y-106857200D01*
X70297619Y-106857200D02*
X70154762Y-106904819D01*
X70154762Y-106904819D02*
X70059524Y-106904819D01*
X71440476Y-106904819D02*
X70869048Y-106904819D01*
X71154762Y-106904819D02*
X71154762Y-105904819D01*
X71154762Y-105904819D02*
X71059524Y-106047676D01*
X71059524Y-106047676D02*
X70964286Y-106142914D01*
X70964286Y-106142914D02*
X70869048Y-106190533D01*
X71916667Y-106904819D02*
X72107143Y-106904819D01*
X72107143Y-106904819D02*
X72202381Y-106857200D01*
X72202381Y-106857200D02*
X72250000Y-106809580D01*
X72250000Y-106809580D02*
X72345238Y-106666723D01*
X72345238Y-106666723D02*
X72392857Y-106476247D01*
X72392857Y-106476247D02*
X72392857Y-106095295D01*
X72392857Y-106095295D02*
X72345238Y-106000057D01*
X72345238Y-106000057D02*
X72297619Y-105952438D01*
X72297619Y-105952438D02*
X72202381Y-105904819D01*
X72202381Y-105904819D02*
X72011905Y-105904819D01*
X72011905Y-105904819D02*
X71916667Y-105952438D01*
X71916667Y-105952438D02*
X71869048Y-106000057D01*
X71869048Y-106000057D02*
X71821429Y-106095295D01*
X71821429Y-106095295D02*
X71821429Y-106333390D01*
X71821429Y-106333390D02*
X71869048Y-106428628D01*
X71869048Y-106428628D02*
X71916667Y-106476247D01*
X71916667Y-106476247D02*
X72011905Y-106523866D01*
X72011905Y-106523866D02*
X72202381Y-106523866D01*
X72202381Y-106523866D02*
X72297619Y-106476247D01*
X72297619Y-106476247D02*
X72345238Y-106428628D01*
X72345238Y-106428628D02*
X72392857Y-106333390D01*
X49666666Y-115904819D02*
X49666666Y-116619104D01*
X49666666Y-116619104D02*
X49619047Y-116761961D01*
X49619047Y-116761961D02*
X49523809Y-116857200D01*
X49523809Y-116857200D02*
X49380952Y-116904819D01*
X49380952Y-116904819D02*
X49285714Y-116904819D01*
X50619047Y-115904819D02*
X50142857Y-115904819D01*
X50142857Y-115904819D02*
X50095238Y-116381009D01*
X50095238Y-116381009D02*
X50142857Y-116333390D01*
X50142857Y-116333390D02*
X50238095Y-116285771D01*
X50238095Y-116285771D02*
X50476190Y-116285771D01*
X50476190Y-116285771D02*
X50571428Y-116333390D01*
X50571428Y-116333390D02*
X50619047Y-116381009D01*
X50619047Y-116381009D02*
X50666666Y-116476247D01*
X50666666Y-116476247D02*
X50666666Y-116714342D01*
X50666666Y-116714342D02*
X50619047Y-116809580D01*
X50619047Y-116809580D02*
X50571428Y-116857200D01*
X50571428Y-116857200D02*
X50476190Y-116904819D01*
X50476190Y-116904819D02*
X50238095Y-116904819D01*
X50238095Y-116904819D02*
X50142857Y-116857200D01*
X50142857Y-116857200D02*
X50095238Y-116809580D01*
X49666666Y-145904819D02*
X49666666Y-146619104D01*
X49666666Y-146619104D02*
X49619047Y-146761961D01*
X49619047Y-146761961D02*
X49523809Y-146857200D01*
X49523809Y-146857200D02*
X49380952Y-146904819D01*
X49380952Y-146904819D02*
X49285714Y-146904819D01*
X50285714Y-146333390D02*
X50190476Y-146285771D01*
X50190476Y-146285771D02*
X50142857Y-146238152D01*
X50142857Y-146238152D02*
X50095238Y-146142914D01*
X50095238Y-146142914D02*
X50095238Y-146095295D01*
X50095238Y-146095295D02*
X50142857Y-146000057D01*
X50142857Y-146000057D02*
X50190476Y-145952438D01*
X50190476Y-145952438D02*
X50285714Y-145904819D01*
X50285714Y-145904819D02*
X50476190Y-145904819D01*
X50476190Y-145904819D02*
X50571428Y-145952438D01*
X50571428Y-145952438D02*
X50619047Y-146000057D01*
X50619047Y-146000057D02*
X50666666Y-146095295D01*
X50666666Y-146095295D02*
X50666666Y-146142914D01*
X50666666Y-146142914D02*
X50619047Y-146238152D01*
X50619047Y-146238152D02*
X50571428Y-146285771D01*
X50571428Y-146285771D02*
X50476190Y-146333390D01*
X50476190Y-146333390D02*
X50285714Y-146333390D01*
X50285714Y-146333390D02*
X50190476Y-146381009D01*
X50190476Y-146381009D02*
X50142857Y-146428628D01*
X50142857Y-146428628D02*
X50095238Y-146523866D01*
X50095238Y-146523866D02*
X50095238Y-146714342D01*
X50095238Y-146714342D02*
X50142857Y-146809580D01*
X50142857Y-146809580D02*
X50190476Y-146857200D01*
X50190476Y-146857200D02*
X50285714Y-146904819D01*
X50285714Y-146904819D02*
X50476190Y-146904819D01*
X50476190Y-146904819D02*
X50571428Y-146857200D01*
X50571428Y-146857200D02*
X50619047Y-146809580D01*
X50619047Y-146809580D02*
X50666666Y-146714342D01*
X50666666Y-146714342D02*
X50666666Y-146523866D01*
X50666666Y-146523866D02*
X50619047Y-146428628D01*
X50619047Y-146428628D02*
X50571428Y-146381009D01*
X50571428Y-146381009D02*
X50476190Y-146333390D01*
X49666666Y-125904819D02*
X49666666Y-126619104D01*
X49666666Y-126619104D02*
X49619047Y-126761961D01*
X49619047Y-126761961D02*
X49523809Y-126857200D01*
X49523809Y-126857200D02*
X49380952Y-126904819D01*
X49380952Y-126904819D02*
X49285714Y-126904819D01*
X50571428Y-125904819D02*
X50380952Y-125904819D01*
X50380952Y-125904819D02*
X50285714Y-125952438D01*
X50285714Y-125952438D02*
X50238095Y-126000057D01*
X50238095Y-126000057D02*
X50142857Y-126142914D01*
X50142857Y-126142914D02*
X50095238Y-126333390D01*
X50095238Y-126333390D02*
X50095238Y-126714342D01*
X50095238Y-126714342D02*
X50142857Y-126809580D01*
X50142857Y-126809580D02*
X50190476Y-126857200D01*
X50190476Y-126857200D02*
X50285714Y-126904819D01*
X50285714Y-126904819D02*
X50476190Y-126904819D01*
X50476190Y-126904819D02*
X50571428Y-126857200D01*
X50571428Y-126857200D02*
X50619047Y-126809580D01*
X50619047Y-126809580D02*
X50666666Y-126714342D01*
X50666666Y-126714342D02*
X50666666Y-126476247D01*
X50666666Y-126476247D02*
X50619047Y-126381009D01*
X50619047Y-126381009D02*
X50571428Y-126333390D01*
X50571428Y-126333390D02*
X50476190Y-126285771D01*
X50476190Y-126285771D02*
X50285714Y-126285771D01*
X50285714Y-126285771D02*
X50190476Y-126333390D01*
X50190476Y-126333390D02*
X50142857Y-126381009D01*
X50142857Y-126381009D02*
X50095238Y-126476247D01*
X49666666Y-135904819D02*
X49666666Y-136619104D01*
X49666666Y-136619104D02*
X49619047Y-136761961D01*
X49619047Y-136761961D02*
X49523809Y-136857200D01*
X49523809Y-136857200D02*
X49380952Y-136904819D01*
X49380952Y-136904819D02*
X49285714Y-136904819D01*
X50047619Y-135904819D02*
X50714285Y-135904819D01*
X50714285Y-135904819D02*
X50285714Y-136904819D01*
X49666666Y-75904819D02*
X49666666Y-76619104D01*
X49666666Y-76619104D02*
X49619047Y-76761961D01*
X49619047Y-76761961D02*
X49523809Y-76857200D01*
X49523809Y-76857200D02*
X49380952Y-76904819D01*
X49380952Y-76904819D02*
X49285714Y-76904819D01*
X50095238Y-76000057D02*
X50142857Y-75952438D01*
X50142857Y-75952438D02*
X50238095Y-75904819D01*
X50238095Y-75904819D02*
X50476190Y-75904819D01*
X50476190Y-75904819D02*
X50571428Y-75952438D01*
X50571428Y-75952438D02*
X50619047Y-76000057D01*
X50619047Y-76000057D02*
X50666666Y-76095295D01*
X50666666Y-76095295D02*
X50666666Y-76190533D01*
X50666666Y-76190533D02*
X50619047Y-76333390D01*
X50619047Y-76333390D02*
X50047619Y-76904819D01*
X50047619Y-76904819D02*
X50666666Y-76904819D01*
X49666666Y-95904819D02*
X49666666Y-96619104D01*
X49666666Y-96619104D02*
X49619047Y-96761961D01*
X49619047Y-96761961D02*
X49523809Y-96857200D01*
X49523809Y-96857200D02*
X49380952Y-96904819D01*
X49380952Y-96904819D02*
X49285714Y-96904819D01*
X50571428Y-96238152D02*
X50571428Y-96904819D01*
X50333333Y-95857200D02*
X50095238Y-96571485D01*
X50095238Y-96571485D02*
X50714285Y-96571485D01*
X49666666Y-65904819D02*
X49666666Y-66619104D01*
X49666666Y-66619104D02*
X49619047Y-66761961D01*
X49619047Y-66761961D02*
X49523809Y-66857200D01*
X49523809Y-66857200D02*
X49380952Y-66904819D01*
X49380952Y-66904819D02*
X49285714Y-66904819D01*
X50666666Y-66904819D02*
X50095238Y-66904819D01*
X50380952Y-66904819D02*
X50380952Y-65904819D01*
X50380952Y-65904819D02*
X50285714Y-66047676D01*
X50285714Y-66047676D02*
X50190476Y-66142914D01*
X50190476Y-66142914D02*
X50095238Y-66190533D01*
X49666666Y-85904819D02*
X49666666Y-86619104D01*
X49666666Y-86619104D02*
X49619047Y-86761961D01*
X49619047Y-86761961D02*
X49523809Y-86857200D01*
X49523809Y-86857200D02*
X49380952Y-86904819D01*
X49380952Y-86904819D02*
X49285714Y-86904819D01*
X50047619Y-85904819D02*
X50666666Y-85904819D01*
X50666666Y-85904819D02*
X50333333Y-86285771D01*
X50333333Y-86285771D02*
X50476190Y-86285771D01*
X50476190Y-86285771D02*
X50571428Y-86333390D01*
X50571428Y-86333390D02*
X50619047Y-86381009D01*
X50619047Y-86381009D02*
X50666666Y-86476247D01*
X50666666Y-86476247D02*
X50666666Y-86714342D01*
X50666666Y-86714342D02*
X50619047Y-86809580D01*
X50619047Y-86809580D02*
X50571428Y-86857200D01*
X50571428Y-86857200D02*
X50476190Y-86904819D01*
X50476190Y-86904819D02*
X50190476Y-86904819D01*
X50190476Y-86904819D02*
X50095238Y-86857200D01*
X50095238Y-86857200D02*
X50047619Y-86809580D01*
X48190476Y-105904819D02*
X48190476Y-106619104D01*
X48190476Y-106619104D02*
X48142857Y-106761961D01*
X48142857Y-106761961D02*
X48047619Y-106857200D01*
X48047619Y-106857200D02*
X47904762Y-106904819D01*
X47904762Y-106904819D02*
X47809524Y-106904819D01*
X48619048Y-106000057D02*
X48666667Y-105952438D01*
X48666667Y-105952438D02*
X48761905Y-105904819D01*
X48761905Y-105904819D02*
X49000000Y-105904819D01*
X49000000Y-105904819D02*
X49095238Y-105952438D01*
X49095238Y-105952438D02*
X49142857Y-106000057D01*
X49142857Y-106000057D02*
X49190476Y-106095295D01*
X49190476Y-106095295D02*
X49190476Y-106190533D01*
X49190476Y-106190533D02*
X49142857Y-106333390D01*
X49142857Y-106333390D02*
X48571429Y-106904819D01*
X48571429Y-106904819D02*
X49190476Y-106904819D01*
X50095238Y-105904819D02*
X49619048Y-105904819D01*
X49619048Y-105904819D02*
X49571429Y-106381009D01*
X49571429Y-106381009D02*
X49619048Y-106333390D01*
X49619048Y-106333390D02*
X49714286Y-106285771D01*
X49714286Y-106285771D02*
X49952381Y-106285771D01*
X49952381Y-106285771D02*
X50047619Y-106333390D01*
X50047619Y-106333390D02*
X50095238Y-106381009D01*
X50095238Y-106381009D02*
X50142857Y-106476247D01*
X50142857Y-106476247D02*
X50142857Y-106714342D01*
X50142857Y-106714342D02*
X50095238Y-106809580D01*
X50095238Y-106809580D02*
X50047619Y-106857200D01*
X50047619Y-106857200D02*
X49952381Y-106904819D01*
X49952381Y-106904819D02*
X49714286Y-106904819D01*
X49714286Y-106904819D02*
X49619048Y-106857200D01*
X49619048Y-106857200D02*
X49571429Y-106809580D01*
X93317080Y-40166666D02*
X93364700Y-40214285D01*
X93364700Y-40214285D02*
X93412319Y-40357142D01*
X93412319Y-40357142D02*
X93412319Y-40452380D01*
X93412319Y-40452380D02*
X93364700Y-40595237D01*
X93364700Y-40595237D02*
X93269461Y-40690475D01*
X93269461Y-40690475D02*
X93174223Y-40738094D01*
X93174223Y-40738094D02*
X92983747Y-40785713D01*
X92983747Y-40785713D02*
X92840890Y-40785713D01*
X92840890Y-40785713D02*
X92650414Y-40738094D01*
X92650414Y-40738094D02*
X92555176Y-40690475D01*
X92555176Y-40690475D02*
X92459938Y-40595237D01*
X92459938Y-40595237D02*
X92412319Y-40452380D01*
X92412319Y-40452380D02*
X92412319Y-40357142D01*
X92412319Y-40357142D02*
X92459938Y-40214285D01*
X92459938Y-40214285D02*
X92507557Y-40166666D01*
X92507557Y-39785713D02*
X92459938Y-39738094D01*
X92459938Y-39738094D02*
X92412319Y-39642856D01*
X92412319Y-39642856D02*
X92412319Y-39404761D01*
X92412319Y-39404761D02*
X92459938Y-39309523D01*
X92459938Y-39309523D02*
X92507557Y-39261904D01*
X92507557Y-39261904D02*
X92602795Y-39214285D01*
X92602795Y-39214285D02*
X92698033Y-39214285D01*
X92698033Y-39214285D02*
X92840890Y-39261904D01*
X92840890Y-39261904D02*
X93412319Y-39833332D01*
X93412319Y-39833332D02*
X93412319Y-39214285D01*
X59878221Y-72109580D02*
X59830602Y-72157200D01*
X59830602Y-72157200D02*
X59687745Y-72204819D01*
X59687745Y-72204819D02*
X59592507Y-72204819D01*
X59592507Y-72204819D02*
X59449650Y-72157200D01*
X59449650Y-72157200D02*
X59354412Y-72061961D01*
X59354412Y-72061961D02*
X59306793Y-71966723D01*
X59306793Y-71966723D02*
X59259174Y-71776247D01*
X59259174Y-71776247D02*
X59259174Y-71633390D01*
X59259174Y-71633390D02*
X59306793Y-71442914D01*
X59306793Y-71442914D02*
X59354412Y-71347676D01*
X59354412Y-71347676D02*
X59449650Y-71252438D01*
X59449650Y-71252438D02*
X59592507Y-71204819D01*
X59592507Y-71204819D02*
X59687745Y-71204819D01*
X59687745Y-71204819D02*
X59830602Y-71252438D01*
X59830602Y-71252438D02*
X59878221Y-71300057D01*
X60211555Y-71204819D02*
X60830602Y-71204819D01*
X60830602Y-71204819D02*
X60497269Y-71585771D01*
X60497269Y-71585771D02*
X60640126Y-71585771D01*
X60640126Y-71585771D02*
X60735364Y-71633390D01*
X60735364Y-71633390D02*
X60782983Y-71681009D01*
X60782983Y-71681009D02*
X60830602Y-71776247D01*
X60830602Y-71776247D02*
X60830602Y-72014342D01*
X60830602Y-72014342D02*
X60782983Y-72109580D01*
X60782983Y-72109580D02*
X60735364Y-72157200D01*
X60735364Y-72157200D02*
X60640126Y-72204819D01*
X60640126Y-72204819D02*
X60354412Y-72204819D01*
X60354412Y-72204819D02*
X60259174Y-72157200D01*
X60259174Y-72157200D02*
X60211555Y-72109580D01*
X38359580Y-39666666D02*
X38407200Y-39714285D01*
X38407200Y-39714285D02*
X38454819Y-39857142D01*
X38454819Y-39857142D02*
X38454819Y-39952380D01*
X38454819Y-39952380D02*
X38407200Y-40095237D01*
X38407200Y-40095237D02*
X38311961Y-40190475D01*
X38311961Y-40190475D02*
X38216723Y-40238094D01*
X38216723Y-40238094D02*
X38026247Y-40285713D01*
X38026247Y-40285713D02*
X37883390Y-40285713D01*
X37883390Y-40285713D02*
X37692914Y-40238094D01*
X37692914Y-40238094D02*
X37597676Y-40190475D01*
X37597676Y-40190475D02*
X37502438Y-40095237D01*
X37502438Y-40095237D02*
X37454819Y-39952380D01*
X37454819Y-39952380D02*
X37454819Y-39857142D01*
X37454819Y-39857142D02*
X37502438Y-39714285D01*
X37502438Y-39714285D02*
X37550057Y-39666666D01*
X38454819Y-38714285D02*
X38454819Y-39285713D01*
X38454819Y-38999999D02*
X37454819Y-38999999D01*
X37454819Y-38999999D02*
X37597676Y-39095237D01*
X37597676Y-39095237D02*
X37692914Y-39190475D01*
X37692914Y-39190475D02*
X37740533Y-39285713D01*
X70440476Y-115904819D02*
X70440476Y-116619104D01*
X70440476Y-116619104D02*
X70392857Y-116761961D01*
X70392857Y-116761961D02*
X70297619Y-116857200D01*
X70297619Y-116857200D02*
X70154762Y-116904819D01*
X70154762Y-116904819D02*
X70059524Y-116904819D01*
X70869048Y-116000057D02*
X70916667Y-115952438D01*
X70916667Y-115952438D02*
X71011905Y-115904819D01*
X71011905Y-115904819D02*
X71250000Y-115904819D01*
X71250000Y-115904819D02*
X71345238Y-115952438D01*
X71345238Y-115952438D02*
X71392857Y-116000057D01*
X71392857Y-116000057D02*
X71440476Y-116095295D01*
X71440476Y-116095295D02*
X71440476Y-116190533D01*
X71440476Y-116190533D02*
X71392857Y-116333390D01*
X71392857Y-116333390D02*
X70821429Y-116904819D01*
X70821429Y-116904819D02*
X71440476Y-116904819D01*
X71773810Y-115904819D02*
X72392857Y-115904819D01*
X72392857Y-115904819D02*
X72059524Y-116285771D01*
X72059524Y-116285771D02*
X72202381Y-116285771D01*
X72202381Y-116285771D02*
X72297619Y-116333390D01*
X72297619Y-116333390D02*
X72345238Y-116381009D01*
X72345238Y-116381009D02*
X72392857Y-116476247D01*
X72392857Y-116476247D02*
X72392857Y-116714342D01*
X72392857Y-116714342D02*
X72345238Y-116809580D01*
X72345238Y-116809580D02*
X72297619Y-116857200D01*
X72297619Y-116857200D02*
X72202381Y-116904819D01*
X72202381Y-116904819D02*
X71916667Y-116904819D01*
X71916667Y-116904819D02*
X71821429Y-116857200D01*
X71821429Y-116857200D02*
X71773810Y-116809580D01*
X112940476Y-115904819D02*
X112940476Y-116619104D01*
X112940476Y-116619104D02*
X112892857Y-116761961D01*
X112892857Y-116761961D02*
X112797619Y-116857200D01*
X112797619Y-116857200D02*
X112654762Y-116904819D01*
X112654762Y-116904819D02*
X112559524Y-116904819D01*
X113369048Y-116000057D02*
X113416667Y-115952438D01*
X113416667Y-115952438D02*
X113511905Y-115904819D01*
X113511905Y-115904819D02*
X113750000Y-115904819D01*
X113750000Y-115904819D02*
X113845238Y-115952438D01*
X113845238Y-115952438D02*
X113892857Y-116000057D01*
X113892857Y-116000057D02*
X113940476Y-116095295D01*
X113940476Y-116095295D02*
X113940476Y-116190533D01*
X113940476Y-116190533D02*
X113892857Y-116333390D01*
X113892857Y-116333390D02*
X113321429Y-116904819D01*
X113321429Y-116904819D02*
X113940476Y-116904819D01*
X114797619Y-116238152D02*
X114797619Y-116904819D01*
X114559524Y-115857200D02*
X114321429Y-116571485D01*
X114321429Y-116571485D02*
X114940476Y-116571485D01*
X70440476Y-135904819D02*
X70440476Y-136619104D01*
X70440476Y-136619104D02*
X70392857Y-136761961D01*
X70392857Y-136761961D02*
X70297619Y-136857200D01*
X70297619Y-136857200D02*
X70154762Y-136904819D01*
X70154762Y-136904819D02*
X70059524Y-136904819D01*
X70869048Y-136000057D02*
X70916667Y-135952438D01*
X70916667Y-135952438D02*
X71011905Y-135904819D01*
X71011905Y-135904819D02*
X71250000Y-135904819D01*
X71250000Y-135904819D02*
X71345238Y-135952438D01*
X71345238Y-135952438D02*
X71392857Y-136000057D01*
X71392857Y-136000057D02*
X71440476Y-136095295D01*
X71440476Y-136095295D02*
X71440476Y-136190533D01*
X71440476Y-136190533D02*
X71392857Y-136333390D01*
X71392857Y-136333390D02*
X70821429Y-136904819D01*
X70821429Y-136904819D02*
X71440476Y-136904819D01*
X71773810Y-135904819D02*
X72440476Y-135904819D01*
X72440476Y-135904819D02*
X72011905Y-136904819D01*
X70440476Y-125904819D02*
X70440476Y-126619104D01*
X70440476Y-126619104D02*
X70392857Y-126761961D01*
X70392857Y-126761961D02*
X70297619Y-126857200D01*
X70297619Y-126857200D02*
X70154762Y-126904819D01*
X70154762Y-126904819D02*
X70059524Y-126904819D01*
X70869048Y-126000057D02*
X70916667Y-125952438D01*
X70916667Y-125952438D02*
X71011905Y-125904819D01*
X71011905Y-125904819D02*
X71250000Y-125904819D01*
X71250000Y-125904819D02*
X71345238Y-125952438D01*
X71345238Y-125952438D02*
X71392857Y-126000057D01*
X71392857Y-126000057D02*
X71440476Y-126095295D01*
X71440476Y-126095295D02*
X71440476Y-126190533D01*
X71440476Y-126190533D02*
X71392857Y-126333390D01*
X71392857Y-126333390D02*
X70821429Y-126904819D01*
X70821429Y-126904819D02*
X71440476Y-126904819D01*
X72011905Y-126333390D02*
X71916667Y-126285771D01*
X71916667Y-126285771D02*
X71869048Y-126238152D01*
X71869048Y-126238152D02*
X71821429Y-126142914D01*
X71821429Y-126142914D02*
X71821429Y-126095295D01*
X71821429Y-126095295D02*
X71869048Y-126000057D01*
X71869048Y-126000057D02*
X71916667Y-125952438D01*
X71916667Y-125952438D02*
X72011905Y-125904819D01*
X72011905Y-125904819D02*
X72202381Y-125904819D01*
X72202381Y-125904819D02*
X72297619Y-125952438D01*
X72297619Y-125952438D02*
X72345238Y-126000057D01*
X72345238Y-126000057D02*
X72392857Y-126095295D01*
X72392857Y-126095295D02*
X72392857Y-126142914D01*
X72392857Y-126142914D02*
X72345238Y-126238152D01*
X72345238Y-126238152D02*
X72297619Y-126285771D01*
X72297619Y-126285771D02*
X72202381Y-126333390D01*
X72202381Y-126333390D02*
X72011905Y-126333390D01*
X72011905Y-126333390D02*
X71916667Y-126381009D01*
X71916667Y-126381009D02*
X71869048Y-126428628D01*
X71869048Y-126428628D02*
X71821429Y-126523866D01*
X71821429Y-126523866D02*
X71821429Y-126714342D01*
X71821429Y-126714342D02*
X71869048Y-126809580D01*
X71869048Y-126809580D02*
X71916667Y-126857200D01*
X71916667Y-126857200D02*
X72011905Y-126904819D01*
X72011905Y-126904819D02*
X72202381Y-126904819D01*
X72202381Y-126904819D02*
X72297619Y-126857200D01*
X72297619Y-126857200D02*
X72345238Y-126809580D01*
X72345238Y-126809580D02*
X72392857Y-126714342D01*
X72392857Y-126714342D02*
X72392857Y-126523866D01*
X72392857Y-126523866D02*
X72345238Y-126428628D01*
X72345238Y-126428628D02*
X72297619Y-126381009D01*
X72297619Y-126381009D02*
X72202381Y-126333390D01*
X112940476Y-135904819D02*
X112940476Y-136619104D01*
X112940476Y-136619104D02*
X112892857Y-136761961D01*
X112892857Y-136761961D02*
X112797619Y-136857200D01*
X112797619Y-136857200D02*
X112654762Y-136904819D01*
X112654762Y-136904819D02*
X112559524Y-136904819D01*
X113369048Y-136000057D02*
X113416667Y-135952438D01*
X113416667Y-135952438D02*
X113511905Y-135904819D01*
X113511905Y-135904819D02*
X113750000Y-135904819D01*
X113750000Y-135904819D02*
X113845238Y-135952438D01*
X113845238Y-135952438D02*
X113892857Y-136000057D01*
X113892857Y-136000057D02*
X113940476Y-136095295D01*
X113940476Y-136095295D02*
X113940476Y-136190533D01*
X113940476Y-136190533D02*
X113892857Y-136333390D01*
X113892857Y-136333390D02*
X113321429Y-136904819D01*
X113321429Y-136904819D02*
X113940476Y-136904819D01*
X114416667Y-136904819D02*
X114607143Y-136904819D01*
X114607143Y-136904819D02*
X114702381Y-136857200D01*
X114702381Y-136857200D02*
X114750000Y-136809580D01*
X114750000Y-136809580D02*
X114845238Y-136666723D01*
X114845238Y-136666723D02*
X114892857Y-136476247D01*
X114892857Y-136476247D02*
X114892857Y-136095295D01*
X114892857Y-136095295D02*
X114845238Y-136000057D01*
X114845238Y-136000057D02*
X114797619Y-135952438D01*
X114797619Y-135952438D02*
X114702381Y-135904819D01*
X114702381Y-135904819D02*
X114511905Y-135904819D01*
X114511905Y-135904819D02*
X114416667Y-135952438D01*
X114416667Y-135952438D02*
X114369048Y-136000057D01*
X114369048Y-136000057D02*
X114321429Y-136095295D01*
X114321429Y-136095295D02*
X114321429Y-136333390D01*
X114321429Y-136333390D02*
X114369048Y-136428628D01*
X114369048Y-136428628D02*
X114416667Y-136476247D01*
X114416667Y-136476247D02*
X114511905Y-136523866D01*
X114511905Y-136523866D02*
X114702381Y-136523866D01*
X114702381Y-136523866D02*
X114797619Y-136476247D01*
X114797619Y-136476247D02*
X114845238Y-136428628D01*
X114845238Y-136428628D02*
X114892857Y-136333390D01*
X94190476Y-75904819D02*
X94190476Y-76619104D01*
X94190476Y-76619104D02*
X94142857Y-76761961D01*
X94142857Y-76761961D02*
X94047619Y-76857200D01*
X94047619Y-76857200D02*
X93904762Y-76904819D01*
X93904762Y-76904819D02*
X93809524Y-76904819D01*
X95190476Y-76904819D02*
X94619048Y-76904819D01*
X94904762Y-76904819D02*
X94904762Y-75904819D01*
X94904762Y-75904819D02*
X94809524Y-76047676D01*
X94809524Y-76047676D02*
X94714286Y-76142914D01*
X94714286Y-76142914D02*
X94619048Y-76190533D01*
X95809524Y-75904819D02*
X95904762Y-75904819D01*
X95904762Y-75904819D02*
X96000000Y-75952438D01*
X96000000Y-75952438D02*
X96047619Y-76000057D01*
X96047619Y-76000057D02*
X96095238Y-76095295D01*
X96095238Y-76095295D02*
X96142857Y-76285771D01*
X96142857Y-76285771D02*
X96142857Y-76523866D01*
X96142857Y-76523866D02*
X96095238Y-76714342D01*
X96095238Y-76714342D02*
X96047619Y-76809580D01*
X96047619Y-76809580D02*
X96000000Y-76857200D01*
X96000000Y-76857200D02*
X95904762Y-76904819D01*
X95904762Y-76904819D02*
X95809524Y-76904819D01*
X95809524Y-76904819D02*
X95714286Y-76857200D01*
X95714286Y-76857200D02*
X95666667Y-76809580D01*
X95666667Y-76809580D02*
X95619048Y-76714342D01*
X95619048Y-76714342D02*
X95571429Y-76523866D01*
X95571429Y-76523866D02*
X95571429Y-76285771D01*
X95571429Y-76285771D02*
X95619048Y-76095295D01*
X95619048Y-76095295D02*
X95666667Y-76000057D01*
X95666667Y-76000057D02*
X95714286Y-75952438D01*
X95714286Y-75952438D02*
X95809524Y-75904819D01*
X94190476Y-85904819D02*
X94190476Y-86619104D01*
X94190476Y-86619104D02*
X94142857Y-86761961D01*
X94142857Y-86761961D02*
X94047619Y-86857200D01*
X94047619Y-86857200D02*
X93904762Y-86904819D01*
X93904762Y-86904819D02*
X93809524Y-86904819D01*
X95190476Y-86904819D02*
X94619048Y-86904819D01*
X94904762Y-86904819D02*
X94904762Y-85904819D01*
X94904762Y-85904819D02*
X94809524Y-86047676D01*
X94809524Y-86047676D02*
X94714286Y-86142914D01*
X94714286Y-86142914D02*
X94619048Y-86190533D01*
X96142857Y-86904819D02*
X95571429Y-86904819D01*
X95857143Y-86904819D02*
X95857143Y-85904819D01*
X95857143Y-85904819D02*
X95761905Y-86047676D01*
X95761905Y-86047676D02*
X95666667Y-86142914D01*
X95666667Y-86142914D02*
X95571429Y-86190533D01*
X94190476Y-95904819D02*
X94190476Y-96619104D01*
X94190476Y-96619104D02*
X94142857Y-96761961D01*
X94142857Y-96761961D02*
X94047619Y-96857200D01*
X94047619Y-96857200D02*
X93904762Y-96904819D01*
X93904762Y-96904819D02*
X93809524Y-96904819D01*
X95190476Y-96904819D02*
X94619048Y-96904819D01*
X94904762Y-96904819D02*
X94904762Y-95904819D01*
X94904762Y-95904819D02*
X94809524Y-96047676D01*
X94809524Y-96047676D02*
X94714286Y-96142914D01*
X94714286Y-96142914D02*
X94619048Y-96190533D01*
X95571429Y-96000057D02*
X95619048Y-95952438D01*
X95619048Y-95952438D02*
X95714286Y-95904819D01*
X95714286Y-95904819D02*
X95952381Y-95904819D01*
X95952381Y-95904819D02*
X96047619Y-95952438D01*
X96047619Y-95952438D02*
X96095238Y-96000057D01*
X96095238Y-96000057D02*
X96142857Y-96095295D01*
X96142857Y-96095295D02*
X96142857Y-96190533D01*
X96142857Y-96190533D02*
X96095238Y-96333390D01*
X96095238Y-96333390D02*
X95523810Y-96904819D01*
X95523810Y-96904819D02*
X96142857Y-96904819D01*
X94190476Y-115904819D02*
X94190476Y-116619104D01*
X94190476Y-116619104D02*
X94142857Y-116761961D01*
X94142857Y-116761961D02*
X94047619Y-116857200D01*
X94047619Y-116857200D02*
X93904762Y-116904819D01*
X93904762Y-116904819D02*
X93809524Y-116904819D01*
X95190476Y-116904819D02*
X94619048Y-116904819D01*
X94904762Y-116904819D02*
X94904762Y-115904819D01*
X94904762Y-115904819D02*
X94809524Y-116047676D01*
X94809524Y-116047676D02*
X94714286Y-116142914D01*
X94714286Y-116142914D02*
X94619048Y-116190533D01*
X95523810Y-115904819D02*
X96142857Y-115904819D01*
X96142857Y-115904819D02*
X95809524Y-116285771D01*
X95809524Y-116285771D02*
X95952381Y-116285771D01*
X95952381Y-116285771D02*
X96047619Y-116333390D01*
X96047619Y-116333390D02*
X96095238Y-116381009D01*
X96095238Y-116381009D02*
X96142857Y-116476247D01*
X96142857Y-116476247D02*
X96142857Y-116714342D01*
X96142857Y-116714342D02*
X96095238Y-116809580D01*
X96095238Y-116809580D02*
X96047619Y-116857200D01*
X96047619Y-116857200D02*
X95952381Y-116904819D01*
X95952381Y-116904819D02*
X95666667Y-116904819D01*
X95666667Y-116904819D02*
X95571429Y-116857200D01*
X95571429Y-116857200D02*
X95523810Y-116809580D01*
X94666666Y-65904819D02*
X94666666Y-66619104D01*
X94666666Y-66619104D02*
X94619047Y-66761961D01*
X94619047Y-66761961D02*
X94523809Y-66857200D01*
X94523809Y-66857200D02*
X94380952Y-66904819D01*
X94380952Y-66904819D02*
X94285714Y-66904819D01*
X95190476Y-66904819D02*
X95380952Y-66904819D01*
X95380952Y-66904819D02*
X95476190Y-66857200D01*
X95476190Y-66857200D02*
X95523809Y-66809580D01*
X95523809Y-66809580D02*
X95619047Y-66666723D01*
X95619047Y-66666723D02*
X95666666Y-66476247D01*
X95666666Y-66476247D02*
X95666666Y-66095295D01*
X95666666Y-66095295D02*
X95619047Y-66000057D01*
X95619047Y-66000057D02*
X95571428Y-65952438D01*
X95571428Y-65952438D02*
X95476190Y-65904819D01*
X95476190Y-65904819D02*
X95285714Y-65904819D01*
X95285714Y-65904819D02*
X95190476Y-65952438D01*
X95190476Y-65952438D02*
X95142857Y-66000057D01*
X95142857Y-66000057D02*
X95095238Y-66095295D01*
X95095238Y-66095295D02*
X95095238Y-66333390D01*
X95095238Y-66333390D02*
X95142857Y-66428628D01*
X95142857Y-66428628D02*
X95190476Y-66476247D01*
X95190476Y-66476247D02*
X95285714Y-66523866D01*
X95285714Y-66523866D02*
X95476190Y-66523866D01*
X95476190Y-66523866D02*
X95571428Y-66476247D01*
X95571428Y-66476247D02*
X95619047Y-66428628D01*
X95619047Y-66428628D02*
X95666666Y-66333390D01*
X94190476Y-145904819D02*
X94190476Y-146619104D01*
X94190476Y-146619104D02*
X94142857Y-146761961D01*
X94142857Y-146761961D02*
X94047619Y-146857200D01*
X94047619Y-146857200D02*
X93904762Y-146904819D01*
X93904762Y-146904819D02*
X93809524Y-146904819D01*
X95190476Y-146904819D02*
X94619048Y-146904819D01*
X94904762Y-146904819D02*
X94904762Y-145904819D01*
X94904762Y-145904819D02*
X94809524Y-146047676D01*
X94809524Y-146047676D02*
X94714286Y-146142914D01*
X94714286Y-146142914D02*
X94619048Y-146190533D01*
X96047619Y-145904819D02*
X95857143Y-145904819D01*
X95857143Y-145904819D02*
X95761905Y-145952438D01*
X95761905Y-145952438D02*
X95714286Y-146000057D01*
X95714286Y-146000057D02*
X95619048Y-146142914D01*
X95619048Y-146142914D02*
X95571429Y-146333390D01*
X95571429Y-146333390D02*
X95571429Y-146714342D01*
X95571429Y-146714342D02*
X95619048Y-146809580D01*
X95619048Y-146809580D02*
X95666667Y-146857200D01*
X95666667Y-146857200D02*
X95761905Y-146904819D01*
X95761905Y-146904819D02*
X95952381Y-146904819D01*
X95952381Y-146904819D02*
X96047619Y-146857200D01*
X96047619Y-146857200D02*
X96095238Y-146809580D01*
X96095238Y-146809580D02*
X96142857Y-146714342D01*
X96142857Y-146714342D02*
X96142857Y-146476247D01*
X96142857Y-146476247D02*
X96095238Y-146381009D01*
X96095238Y-146381009D02*
X96047619Y-146333390D01*
X96047619Y-146333390D02*
X95952381Y-146285771D01*
X95952381Y-146285771D02*
X95761905Y-146285771D01*
X95761905Y-146285771D02*
X95666667Y-146333390D01*
X95666667Y-146333390D02*
X95619048Y-146381009D01*
X95619048Y-146381009D02*
X95571429Y-146476247D01*
X94190476Y-125904819D02*
X94190476Y-126619104D01*
X94190476Y-126619104D02*
X94142857Y-126761961D01*
X94142857Y-126761961D02*
X94047619Y-126857200D01*
X94047619Y-126857200D02*
X93904762Y-126904819D01*
X93904762Y-126904819D02*
X93809524Y-126904819D01*
X95190476Y-126904819D02*
X94619048Y-126904819D01*
X94904762Y-126904819D02*
X94904762Y-125904819D01*
X94904762Y-125904819D02*
X94809524Y-126047676D01*
X94809524Y-126047676D02*
X94714286Y-126142914D01*
X94714286Y-126142914D02*
X94619048Y-126190533D01*
X96047619Y-126238152D02*
X96047619Y-126904819D01*
X95809524Y-125857200D02*
X95571429Y-126571485D01*
X95571429Y-126571485D02*
X96190476Y-126571485D01*
X94190476Y-135904819D02*
X94190476Y-136619104D01*
X94190476Y-136619104D02*
X94142857Y-136761961D01*
X94142857Y-136761961D02*
X94047619Y-136857200D01*
X94047619Y-136857200D02*
X93904762Y-136904819D01*
X93904762Y-136904819D02*
X93809524Y-136904819D01*
X95190476Y-136904819D02*
X94619048Y-136904819D01*
X94904762Y-136904819D02*
X94904762Y-135904819D01*
X94904762Y-135904819D02*
X94809524Y-136047676D01*
X94809524Y-136047676D02*
X94714286Y-136142914D01*
X94714286Y-136142914D02*
X94619048Y-136190533D01*
X96095238Y-135904819D02*
X95619048Y-135904819D01*
X95619048Y-135904819D02*
X95571429Y-136381009D01*
X95571429Y-136381009D02*
X95619048Y-136333390D01*
X95619048Y-136333390D02*
X95714286Y-136285771D01*
X95714286Y-136285771D02*
X95952381Y-136285771D01*
X95952381Y-136285771D02*
X96047619Y-136333390D01*
X96047619Y-136333390D02*
X96095238Y-136381009D01*
X96095238Y-136381009D02*
X96142857Y-136476247D01*
X96142857Y-136476247D02*
X96142857Y-136714342D01*
X96142857Y-136714342D02*
X96095238Y-136809580D01*
X96095238Y-136809580D02*
X96047619Y-136857200D01*
X96047619Y-136857200D02*
X95952381Y-136904819D01*
X95952381Y-136904819D02*
X95714286Y-136904819D01*
X95714286Y-136904819D02*
X95619048Y-136857200D01*
X95619048Y-136857200D02*
X95571429Y-136809580D01*
X92940476Y-105904819D02*
X92940476Y-106619104D01*
X92940476Y-106619104D02*
X92892857Y-106761961D01*
X92892857Y-106761961D02*
X92797619Y-106857200D01*
X92797619Y-106857200D02*
X92654762Y-106904819D01*
X92654762Y-106904819D02*
X92559524Y-106904819D01*
X93369048Y-106000057D02*
X93416667Y-105952438D01*
X93416667Y-105952438D02*
X93511905Y-105904819D01*
X93511905Y-105904819D02*
X93750000Y-105904819D01*
X93750000Y-105904819D02*
X93845238Y-105952438D01*
X93845238Y-105952438D02*
X93892857Y-106000057D01*
X93892857Y-106000057D02*
X93940476Y-106095295D01*
X93940476Y-106095295D02*
X93940476Y-106190533D01*
X93940476Y-106190533D02*
X93892857Y-106333390D01*
X93892857Y-106333390D02*
X93321429Y-106904819D01*
X93321429Y-106904819D02*
X93940476Y-106904819D01*
X94797619Y-105904819D02*
X94607143Y-105904819D01*
X94607143Y-105904819D02*
X94511905Y-105952438D01*
X94511905Y-105952438D02*
X94464286Y-106000057D01*
X94464286Y-106000057D02*
X94369048Y-106142914D01*
X94369048Y-106142914D02*
X94321429Y-106333390D01*
X94321429Y-106333390D02*
X94321429Y-106714342D01*
X94321429Y-106714342D02*
X94369048Y-106809580D01*
X94369048Y-106809580D02*
X94416667Y-106857200D01*
X94416667Y-106857200D02*
X94511905Y-106904819D01*
X94511905Y-106904819D02*
X94702381Y-106904819D01*
X94702381Y-106904819D02*
X94797619Y-106857200D01*
X94797619Y-106857200D02*
X94845238Y-106809580D01*
X94845238Y-106809580D02*
X94892857Y-106714342D01*
X94892857Y-106714342D02*
X94892857Y-106476247D01*
X94892857Y-106476247D02*
X94845238Y-106381009D01*
X94845238Y-106381009D02*
X94797619Y-106333390D01*
X94797619Y-106333390D02*
X94702381Y-106285771D01*
X94702381Y-106285771D02*
X94511905Y-106285771D01*
X94511905Y-106285771D02*
X94416667Y-106333390D01*
X94416667Y-106333390D02*
X94369048Y-106381009D01*
X94369048Y-106381009D02*
X94321429Y-106476247D01*
X81690476Y-85764819D02*
X81690476Y-86479104D01*
X81690476Y-86479104D02*
X81642857Y-86621961D01*
X81642857Y-86621961D02*
X81547619Y-86717200D01*
X81547619Y-86717200D02*
X81404762Y-86764819D01*
X81404762Y-86764819D02*
X81309524Y-86764819D01*
X82071429Y-85764819D02*
X82690476Y-85764819D01*
X82690476Y-85764819D02*
X82357143Y-86145771D01*
X82357143Y-86145771D02*
X82500000Y-86145771D01*
X82500000Y-86145771D02*
X82595238Y-86193390D01*
X82595238Y-86193390D02*
X82642857Y-86241009D01*
X82642857Y-86241009D02*
X82690476Y-86336247D01*
X82690476Y-86336247D02*
X82690476Y-86574342D01*
X82690476Y-86574342D02*
X82642857Y-86669580D01*
X82642857Y-86669580D02*
X82595238Y-86717200D01*
X82595238Y-86717200D02*
X82500000Y-86764819D01*
X82500000Y-86764819D02*
X82214286Y-86764819D01*
X82214286Y-86764819D02*
X82119048Y-86717200D01*
X82119048Y-86717200D02*
X82071429Y-86669580D01*
X83071429Y-85860057D02*
X83119048Y-85812438D01*
X83119048Y-85812438D02*
X83214286Y-85764819D01*
X83214286Y-85764819D02*
X83452381Y-85764819D01*
X83452381Y-85764819D02*
X83547619Y-85812438D01*
X83547619Y-85812438D02*
X83595238Y-85860057D01*
X83595238Y-85860057D02*
X83642857Y-85955295D01*
X83642857Y-85955295D02*
X83642857Y-86050533D01*
X83642857Y-86050533D02*
X83595238Y-86193390D01*
X83595238Y-86193390D02*
X83023810Y-86764819D01*
X83023810Y-86764819D02*
X83642857Y-86764819D01*
X81690476Y-103144819D02*
X81690476Y-103859104D01*
X81690476Y-103859104D02*
X81642857Y-104001961D01*
X81642857Y-104001961D02*
X81547619Y-104097200D01*
X81547619Y-104097200D02*
X81404762Y-104144819D01*
X81404762Y-104144819D02*
X81309524Y-104144819D01*
X82071429Y-103144819D02*
X82690476Y-103144819D01*
X82690476Y-103144819D02*
X82357143Y-103525771D01*
X82357143Y-103525771D02*
X82500000Y-103525771D01*
X82500000Y-103525771D02*
X82595238Y-103573390D01*
X82595238Y-103573390D02*
X82642857Y-103621009D01*
X82642857Y-103621009D02*
X82690476Y-103716247D01*
X82690476Y-103716247D02*
X82690476Y-103954342D01*
X82690476Y-103954342D02*
X82642857Y-104049580D01*
X82642857Y-104049580D02*
X82595238Y-104097200D01*
X82595238Y-104097200D02*
X82500000Y-104144819D01*
X82500000Y-104144819D02*
X82214286Y-104144819D01*
X82214286Y-104144819D02*
X82119048Y-104097200D01*
X82119048Y-104097200D02*
X82071429Y-104049580D01*
X83642857Y-104144819D02*
X83071429Y-104144819D01*
X83357143Y-104144819D02*
X83357143Y-103144819D01*
X83357143Y-103144819D02*
X83261905Y-103287676D01*
X83261905Y-103287676D02*
X83166667Y-103382914D01*
X83166667Y-103382914D02*
X83071429Y-103430533D01*
X62824819Y-140246666D02*
X62348628Y-140579999D01*
X62824819Y-140818094D02*
X61824819Y-140818094D01*
X61824819Y-140818094D02*
X61824819Y-140437142D01*
X61824819Y-140437142D02*
X61872438Y-140341904D01*
X61872438Y-140341904D02*
X61920057Y-140294285D01*
X61920057Y-140294285D02*
X62015295Y-140246666D01*
X62015295Y-140246666D02*
X62158152Y-140246666D01*
X62158152Y-140246666D02*
X62253390Y-140294285D01*
X62253390Y-140294285D02*
X62301009Y-140341904D01*
X62301009Y-140341904D02*
X62348628Y-140437142D01*
X62348628Y-140437142D02*
X62348628Y-140818094D01*
X62824819Y-139294285D02*
X62824819Y-139865713D01*
X62824819Y-139579999D02*
X61824819Y-139579999D01*
X61824819Y-139579999D02*
X61967676Y-139675237D01*
X61967676Y-139675237D02*
X62062914Y-139770475D01*
X62062914Y-139770475D02*
X62110533Y-139865713D01*
X49025595Y-27754819D02*
X49025595Y-28564342D01*
X49025595Y-28564342D02*
X49073214Y-28659580D01*
X49073214Y-28659580D02*
X49120833Y-28707200D01*
X49120833Y-28707200D02*
X49216071Y-28754819D01*
X49216071Y-28754819D02*
X49406547Y-28754819D01*
X49406547Y-28754819D02*
X49501785Y-28707200D01*
X49501785Y-28707200D02*
X49549404Y-28659580D01*
X49549404Y-28659580D02*
X49597023Y-28564342D01*
X49597023Y-28564342D02*
X49597023Y-27754819D01*
X50025595Y-27850057D02*
X50073214Y-27802438D01*
X50073214Y-27802438D02*
X50168452Y-27754819D01*
X50168452Y-27754819D02*
X50406547Y-27754819D01*
X50406547Y-27754819D02*
X50501785Y-27802438D01*
X50501785Y-27802438D02*
X50549404Y-27850057D01*
X50549404Y-27850057D02*
X50597023Y-27945295D01*
X50597023Y-27945295D02*
X50597023Y-28040533D01*
X50597023Y-28040533D02*
X50549404Y-28183390D01*
X50549404Y-28183390D02*
X49977976Y-28754819D01*
X49977976Y-28754819D02*
X50597023Y-28754819D01*
D11*
X53742857Y-30982902D02*
X53742857Y-31363855D01*
X53476190Y-30563855D02*
X53742857Y-30982902D01*
X53742857Y-30982902D02*
X54009523Y-30563855D01*
X54428571Y-30563855D02*
X54504761Y-30563855D01*
X54504761Y-30563855D02*
X54580952Y-30601950D01*
X54580952Y-30601950D02*
X54619047Y-30640045D01*
X54619047Y-30640045D02*
X54657142Y-30716236D01*
X54657142Y-30716236D02*
X54695237Y-30868617D01*
X54695237Y-30868617D02*
X54695237Y-31059093D01*
X54695237Y-31059093D02*
X54657142Y-31211474D01*
X54657142Y-31211474D02*
X54619047Y-31287664D01*
X54619047Y-31287664D02*
X54580952Y-31325760D01*
X54580952Y-31325760D02*
X54504761Y-31363855D01*
X54504761Y-31363855D02*
X54428571Y-31363855D01*
X54428571Y-31363855D02*
X54352380Y-31325760D01*
X54352380Y-31325760D02*
X54314285Y-31287664D01*
X54314285Y-31287664D02*
X54276190Y-31211474D01*
X54276190Y-31211474D02*
X54238094Y-31059093D01*
X54238094Y-31059093D02*
X54238094Y-30868617D01*
X54238094Y-30868617D02*
X54276190Y-30716236D01*
X54276190Y-30716236D02*
X54314285Y-30640045D01*
X54314285Y-30640045D02*
X54352380Y-30601950D01*
X54352380Y-30601950D02*
X54428571Y-30563855D01*
X55038095Y-31059093D02*
X55647619Y-31059093D01*
X55952380Y-30563855D02*
X56485714Y-30563855D01*
X56485714Y-30563855D02*
X56142856Y-31363855D01*
X41219048Y-31287664D02*
X41180952Y-31325760D01*
X41180952Y-31325760D02*
X41066667Y-31363855D01*
X41066667Y-31363855D02*
X40990476Y-31363855D01*
X40990476Y-31363855D02*
X40876190Y-31325760D01*
X40876190Y-31325760D02*
X40800000Y-31249569D01*
X40800000Y-31249569D02*
X40761905Y-31173379D01*
X40761905Y-31173379D02*
X40723809Y-31020998D01*
X40723809Y-31020998D02*
X40723809Y-30906712D01*
X40723809Y-30906712D02*
X40761905Y-30754331D01*
X40761905Y-30754331D02*
X40800000Y-30678140D01*
X40800000Y-30678140D02*
X40876190Y-30601950D01*
X40876190Y-30601950D02*
X40990476Y-30563855D01*
X40990476Y-30563855D02*
X41066667Y-30563855D01*
X41066667Y-30563855D02*
X41180952Y-30601950D01*
X41180952Y-30601950D02*
X41219048Y-30640045D01*
X41447619Y-30563855D02*
X41904762Y-30563855D01*
X41676190Y-31363855D02*
X41676190Y-30563855D01*
X42628572Y-31363855D02*
X42361905Y-30982902D01*
X42171429Y-31363855D02*
X42171429Y-30563855D01*
X42171429Y-30563855D02*
X42476191Y-30563855D01*
X42476191Y-30563855D02*
X42552381Y-30601950D01*
X42552381Y-30601950D02*
X42590476Y-30640045D01*
X42590476Y-30640045D02*
X42628572Y-30716236D01*
X42628572Y-30716236D02*
X42628572Y-30830521D01*
X42628572Y-30830521D02*
X42590476Y-30906712D01*
X42590476Y-30906712D02*
X42552381Y-30944807D01*
X42552381Y-30944807D02*
X42476191Y-30982902D01*
X42476191Y-30982902D02*
X42171429Y-30982902D01*
X43352381Y-31363855D02*
X42971429Y-31363855D01*
X42971429Y-31363855D02*
X42971429Y-30563855D01*
D10*
X103483095Y-27754819D02*
X103483095Y-28564342D01*
X103483095Y-28564342D02*
X103530714Y-28659580D01*
X103530714Y-28659580D02*
X103578333Y-28707200D01*
X103578333Y-28707200D02*
X103673571Y-28754819D01*
X103673571Y-28754819D02*
X103864047Y-28754819D01*
X103864047Y-28754819D02*
X103959285Y-28707200D01*
X103959285Y-28707200D02*
X104006904Y-28659580D01*
X104006904Y-28659580D02*
X104054523Y-28564342D01*
X104054523Y-28564342D02*
X104054523Y-27754819D01*
X104435476Y-27754819D02*
X105054523Y-27754819D01*
X105054523Y-27754819D02*
X104721190Y-28135771D01*
X104721190Y-28135771D02*
X104864047Y-28135771D01*
X104864047Y-28135771D02*
X104959285Y-28183390D01*
X104959285Y-28183390D02*
X105006904Y-28231009D01*
X105006904Y-28231009D02*
X105054523Y-28326247D01*
X105054523Y-28326247D02*
X105054523Y-28564342D01*
X105054523Y-28564342D02*
X105006904Y-28659580D01*
X105006904Y-28659580D02*
X104959285Y-28707200D01*
X104959285Y-28707200D02*
X104864047Y-28754819D01*
X104864047Y-28754819D02*
X104578333Y-28754819D01*
X104578333Y-28754819D02*
X104483095Y-28707200D01*
X104483095Y-28707200D02*
X104435476Y-28659580D01*
D11*
X108742857Y-30982902D02*
X108742857Y-31363855D01*
X108476190Y-30563855D02*
X108742857Y-30982902D01*
X108742857Y-30982902D02*
X109009523Y-30563855D01*
X109428571Y-30563855D02*
X109504761Y-30563855D01*
X109504761Y-30563855D02*
X109580952Y-30601950D01*
X109580952Y-30601950D02*
X109619047Y-30640045D01*
X109619047Y-30640045D02*
X109657142Y-30716236D01*
X109657142Y-30716236D02*
X109695237Y-30868617D01*
X109695237Y-30868617D02*
X109695237Y-31059093D01*
X109695237Y-31059093D02*
X109657142Y-31211474D01*
X109657142Y-31211474D02*
X109619047Y-31287664D01*
X109619047Y-31287664D02*
X109580952Y-31325760D01*
X109580952Y-31325760D02*
X109504761Y-31363855D01*
X109504761Y-31363855D02*
X109428571Y-31363855D01*
X109428571Y-31363855D02*
X109352380Y-31325760D01*
X109352380Y-31325760D02*
X109314285Y-31287664D01*
X109314285Y-31287664D02*
X109276190Y-31211474D01*
X109276190Y-31211474D02*
X109238094Y-31059093D01*
X109238094Y-31059093D02*
X109238094Y-30868617D01*
X109238094Y-30868617D02*
X109276190Y-30716236D01*
X109276190Y-30716236D02*
X109314285Y-30640045D01*
X109314285Y-30640045D02*
X109352380Y-30601950D01*
X109352380Y-30601950D02*
X109428571Y-30563855D01*
X110038095Y-31059093D02*
X110647619Y-31059093D01*
X110952380Y-30563855D02*
X111485714Y-30563855D01*
X111485714Y-30563855D02*
X111142856Y-31363855D01*
X96219048Y-31287664D02*
X96180952Y-31325760D01*
X96180952Y-31325760D02*
X96066667Y-31363855D01*
X96066667Y-31363855D02*
X95990476Y-31363855D01*
X95990476Y-31363855D02*
X95876190Y-31325760D01*
X95876190Y-31325760D02*
X95800000Y-31249569D01*
X95800000Y-31249569D02*
X95761905Y-31173379D01*
X95761905Y-31173379D02*
X95723809Y-31020998D01*
X95723809Y-31020998D02*
X95723809Y-30906712D01*
X95723809Y-30906712D02*
X95761905Y-30754331D01*
X95761905Y-30754331D02*
X95800000Y-30678140D01*
X95800000Y-30678140D02*
X95876190Y-30601950D01*
X95876190Y-30601950D02*
X95990476Y-30563855D01*
X95990476Y-30563855D02*
X96066667Y-30563855D01*
X96066667Y-30563855D02*
X96180952Y-30601950D01*
X96180952Y-30601950D02*
X96219048Y-30640045D01*
X96447619Y-30563855D02*
X96904762Y-30563855D01*
X96676190Y-31363855D02*
X96676190Y-30563855D01*
X97628572Y-31363855D02*
X97361905Y-30982902D01*
X97171429Y-31363855D02*
X97171429Y-30563855D01*
X97171429Y-30563855D02*
X97476191Y-30563855D01*
X97476191Y-30563855D02*
X97552381Y-30601950D01*
X97552381Y-30601950D02*
X97590476Y-30640045D01*
X97590476Y-30640045D02*
X97628572Y-30716236D01*
X97628572Y-30716236D02*
X97628572Y-30830521D01*
X97628572Y-30830521D02*
X97590476Y-30906712D01*
X97590476Y-30906712D02*
X97552381Y-30944807D01*
X97552381Y-30944807D02*
X97476191Y-30982902D01*
X97476191Y-30982902D02*
X97171429Y-30982902D01*
X98352381Y-31363855D02*
X97971429Y-31363855D01*
X97971429Y-31363855D02*
X97971429Y-30563855D01*
D10*
X73788095Y-27454819D02*
X73788095Y-28264342D01*
X73788095Y-28264342D02*
X73835714Y-28359580D01*
X73835714Y-28359580D02*
X73883333Y-28407200D01*
X73883333Y-28407200D02*
X73978571Y-28454819D01*
X73978571Y-28454819D02*
X74169047Y-28454819D01*
X74169047Y-28454819D02*
X74264285Y-28407200D01*
X74264285Y-28407200D02*
X74311904Y-28359580D01*
X74311904Y-28359580D02*
X74359523Y-28264342D01*
X74359523Y-28264342D02*
X74359523Y-27454819D01*
X75359523Y-28454819D02*
X74788095Y-28454819D01*
X75073809Y-28454819D02*
X75073809Y-27454819D01*
X75073809Y-27454819D02*
X74978571Y-27597676D01*
X74978571Y-27597676D02*
X74883333Y-27692914D01*
X74883333Y-27692914D02*
X74788095Y-27740533D01*
X73288095Y-31954819D02*
X73288095Y-32764342D01*
X73288095Y-32764342D02*
X73335714Y-32859580D01*
X73335714Y-32859580D02*
X73383333Y-32907200D01*
X73383333Y-32907200D02*
X73478571Y-32954819D01*
X73478571Y-32954819D02*
X73669047Y-32954819D01*
X73669047Y-32954819D02*
X73764285Y-32907200D01*
X73764285Y-32907200D02*
X73811904Y-32859580D01*
X73811904Y-32859580D02*
X73859523Y-32764342D01*
X73859523Y-32764342D02*
X73859523Y-31954819D01*
X74288095Y-32907200D02*
X74430952Y-32954819D01*
X74430952Y-32954819D02*
X74669047Y-32954819D01*
X74669047Y-32954819D02*
X74764285Y-32907200D01*
X74764285Y-32907200D02*
X74811904Y-32859580D01*
X74811904Y-32859580D02*
X74859523Y-32764342D01*
X74859523Y-32764342D02*
X74859523Y-32669104D01*
X74859523Y-32669104D02*
X74811904Y-32573866D01*
X74811904Y-32573866D02*
X74764285Y-32526247D01*
X74764285Y-32526247D02*
X74669047Y-32478628D01*
X74669047Y-32478628D02*
X74478571Y-32431009D01*
X74478571Y-32431009D02*
X74383333Y-32383390D01*
X74383333Y-32383390D02*
X74335714Y-32335771D01*
X74335714Y-32335771D02*
X74288095Y-32240533D01*
X74288095Y-32240533D02*
X74288095Y-32145295D01*
X74288095Y-32145295D02*
X74335714Y-32050057D01*
X74335714Y-32050057D02*
X74383333Y-32002438D01*
X74383333Y-32002438D02*
X74478571Y-31954819D01*
X74478571Y-31954819D02*
X74716666Y-31954819D01*
X74716666Y-31954819D02*
X74859523Y-32002438D01*
X75621428Y-32431009D02*
X75764285Y-32478628D01*
X75764285Y-32478628D02*
X75811904Y-32526247D01*
X75811904Y-32526247D02*
X75859523Y-32621485D01*
X75859523Y-32621485D02*
X75859523Y-32764342D01*
X75859523Y-32764342D02*
X75811904Y-32859580D01*
X75811904Y-32859580D02*
X75764285Y-32907200D01*
X75764285Y-32907200D02*
X75669047Y-32954819D01*
X75669047Y-32954819D02*
X75288095Y-32954819D01*
X75288095Y-32954819D02*
X75288095Y-31954819D01*
X75288095Y-31954819D02*
X75621428Y-31954819D01*
X75621428Y-31954819D02*
X75716666Y-32002438D01*
X75716666Y-32002438D02*
X75764285Y-32050057D01*
X75764285Y-32050057D02*
X75811904Y-32145295D01*
X75811904Y-32145295D02*
X75811904Y-32240533D01*
X75811904Y-32240533D02*
X75764285Y-32335771D01*
X75764285Y-32335771D02*
X75716666Y-32383390D01*
X75716666Y-32383390D02*
X75621428Y-32431009D01*
X75621428Y-32431009D02*
X75288095Y-32431009D01*
%TO.C,R4*%
D11*
X103630000Y-136730000D02*
X106370000Y-136730000D01*
X106370000Y-143270000D01*
X103630000Y-143270000D01*
X103630000Y-136730000D01*
X105000000Y-135960000D02*
X105000000Y-136730000D01*
X105000000Y-144040000D02*
X105000000Y-143270000D01*
%TO.C,R3*%
X103630000Y-121650000D02*
X106370000Y-121650000D01*
X106370000Y-128190000D01*
X103630000Y-128190000D01*
X103630000Y-121650000D01*
X105000000Y-120880000D02*
X105000000Y-121650000D01*
X105000000Y-128960000D02*
X105000000Y-128190000D01*
%TO.C,J30*%
X115750000Y-127550000D02*
X117550000Y-127550000D01*
X117550000Y-128300000D01*
X115750000Y-128300000D01*
X115750000Y-127550000D01*
X113250000Y-127550000D02*
X114250000Y-127550000D01*
X114250000Y-128300000D01*
X113250000Y-128300000D01*
X113250000Y-127550000D01*
X109950000Y-127550000D02*
X111750000Y-127550000D01*
X111750000Y-128300000D01*
X109950000Y-128300000D01*
X109950000Y-127550000D01*
X109940000Y-127540000D02*
X117560000Y-127540000D01*
X117560000Y-133510000D01*
X109940000Y-133510000D01*
X109940000Y-127540000D01*
X117550000Y-129800000D02*
X116800000Y-129800000D01*
X116800000Y-132750000D02*
X113750000Y-132750000D01*
X116800000Y-129800000D02*
X116800000Y-132750000D01*
X110900000Y-127250000D02*
X109650000Y-127250000D01*
X110700000Y-132750000D02*
X113750000Y-132750000D01*
X110700000Y-129800000D02*
X110700000Y-132750000D01*
X109950000Y-129800000D02*
X110700000Y-129800000D01*
X109650000Y-127250000D02*
X109650000Y-128500000D01*
%TO.C,R2*%
X60000000Y-120960000D02*
X60000000Y-121730000D01*
X60000000Y-129040000D02*
X60000000Y-128270000D01*
X58630000Y-121730000D02*
X61370000Y-121730000D01*
X61370000Y-128270000D01*
X58630000Y-128270000D01*
X58630000Y-121730000D01*
%TO.C,J21*%
X115750000Y-97550000D02*
X117550000Y-97550000D01*
X117550000Y-98300000D01*
X115750000Y-98300000D01*
X115750000Y-97550000D01*
X113250000Y-97550000D02*
X114250000Y-97550000D01*
X114250000Y-98300000D01*
X113250000Y-98300000D01*
X113250000Y-97550000D01*
X109950000Y-97550000D02*
X111750000Y-97550000D01*
X111750000Y-98300000D01*
X109950000Y-98300000D01*
X109950000Y-97550000D01*
X109940000Y-97540000D02*
X117560000Y-97540000D01*
X117560000Y-103510000D01*
X109940000Y-103510000D01*
X109940000Y-97540000D01*
X117550000Y-99800000D02*
X116800000Y-99800000D01*
X116800000Y-102750000D02*
X113750000Y-102750000D01*
X116800000Y-99800000D02*
X116800000Y-102750000D01*
X110900000Y-97250000D02*
X109650000Y-97250000D01*
X110700000Y-102750000D02*
X113750000Y-102750000D01*
X110700000Y-99800000D02*
X110700000Y-102750000D01*
X109950000Y-99800000D02*
X110700000Y-99800000D01*
X109650000Y-97250000D02*
X109650000Y-98500000D01*
%TO.C,J20*%
X115750000Y-87550000D02*
X117550000Y-87550000D01*
X117550000Y-88300000D01*
X115750000Y-88300000D01*
X115750000Y-87550000D01*
X113250000Y-87550000D02*
X114250000Y-87550000D01*
X114250000Y-88300000D01*
X113250000Y-88300000D01*
X113250000Y-87550000D01*
X109950000Y-87550000D02*
X111750000Y-87550000D01*
X111750000Y-88300000D01*
X109950000Y-88300000D01*
X109950000Y-87550000D01*
X109940000Y-87540000D02*
X117560000Y-87540000D01*
X117560000Y-93510000D01*
X109940000Y-93510000D01*
X109940000Y-87540000D01*
X117550000Y-89800000D02*
X116800000Y-89800000D01*
X116800000Y-92750000D02*
X113750000Y-92750000D01*
X116800000Y-89800000D02*
X116800000Y-92750000D01*
X110900000Y-87250000D02*
X109650000Y-87250000D01*
X110700000Y-92750000D02*
X113750000Y-92750000D01*
X110700000Y-89800000D02*
X110700000Y-92750000D01*
X109950000Y-89800000D02*
X110700000Y-89800000D01*
X109650000Y-87250000D02*
X109650000Y-88500000D01*
%TO.C,J22*%
X115750000Y-107550000D02*
X117550000Y-107550000D01*
X117550000Y-108300000D01*
X115750000Y-108300000D01*
X115750000Y-107550000D01*
X113250000Y-107550000D02*
X114250000Y-107550000D01*
X114250000Y-108300000D01*
X113250000Y-108300000D01*
X113250000Y-107550000D01*
X109950000Y-107550000D02*
X111750000Y-107550000D01*
X111750000Y-108300000D01*
X109950000Y-108300000D01*
X109950000Y-107550000D01*
X109940000Y-107540000D02*
X117560000Y-107540000D01*
X117560000Y-113510000D01*
X109940000Y-113510000D01*
X109940000Y-107540000D01*
X117550000Y-109800000D02*
X116800000Y-109800000D01*
X116800000Y-112750000D02*
X113750000Y-112750000D01*
X116800000Y-109800000D02*
X116800000Y-112750000D01*
X110900000Y-107250000D02*
X109650000Y-107250000D01*
X110700000Y-112750000D02*
X113750000Y-112750000D01*
X110700000Y-109800000D02*
X110700000Y-112750000D01*
X109950000Y-109800000D02*
X110700000Y-109800000D01*
X109650000Y-107250000D02*
X109650000Y-108500000D01*
%TO.C,J18*%
X67150000Y-97250000D02*
X67150000Y-98500000D01*
X67450000Y-99800000D02*
X68200000Y-99800000D01*
X68200000Y-99800000D02*
X68200000Y-102750000D01*
X68200000Y-102750000D02*
X71250000Y-102750000D01*
X68400000Y-97250000D02*
X67150000Y-97250000D01*
X74300000Y-99800000D02*
X74300000Y-102750000D01*
X74300000Y-102750000D02*
X71250000Y-102750000D01*
X75050000Y-99800000D02*
X74300000Y-99800000D01*
X67440000Y-97540000D02*
X75060000Y-97540000D01*
X75060000Y-103510000D01*
X67440000Y-103510000D01*
X67440000Y-97540000D01*
X67450000Y-97550000D02*
X69250000Y-97550000D01*
X69250000Y-98300000D01*
X67450000Y-98300000D01*
X67450000Y-97550000D01*
X70750000Y-97550000D02*
X71750000Y-97550000D01*
X71750000Y-98300000D01*
X70750000Y-98300000D01*
X70750000Y-97550000D01*
X73250000Y-97550000D02*
X75050000Y-97550000D01*
X75050000Y-98300000D01*
X73250000Y-98300000D01*
X73250000Y-97550000D01*
%TO.C,J17*%
X67150000Y-87250000D02*
X67150000Y-88500000D01*
X67450000Y-89800000D02*
X68200000Y-89800000D01*
X68200000Y-89800000D02*
X68200000Y-92750000D01*
X68200000Y-92750000D02*
X71250000Y-92750000D01*
X68400000Y-87250000D02*
X67150000Y-87250000D01*
X74300000Y-89800000D02*
X74300000Y-92750000D01*
X74300000Y-92750000D02*
X71250000Y-92750000D01*
X75050000Y-89800000D02*
X74300000Y-89800000D01*
X67440000Y-87540000D02*
X75060000Y-87540000D01*
X75060000Y-93510000D01*
X67440000Y-93510000D01*
X67440000Y-87540000D01*
X67450000Y-87550000D02*
X69250000Y-87550000D01*
X69250000Y-88300000D01*
X67450000Y-88300000D01*
X67450000Y-87550000D01*
X70750000Y-87550000D02*
X71750000Y-87550000D01*
X71750000Y-88300000D01*
X70750000Y-88300000D01*
X70750000Y-87550000D01*
X73250000Y-87550000D02*
X75050000Y-87550000D01*
X75050000Y-88300000D01*
X73250000Y-88300000D01*
X73250000Y-87550000D01*
%TO.C,J19*%
X67150000Y-107250000D02*
X67150000Y-108500000D01*
X67450000Y-109800000D02*
X68200000Y-109800000D01*
X68200000Y-109800000D02*
X68200000Y-112750000D01*
X68200000Y-112750000D02*
X71250000Y-112750000D01*
X68400000Y-107250000D02*
X67150000Y-107250000D01*
X74300000Y-109800000D02*
X74300000Y-112750000D01*
X74300000Y-112750000D02*
X71250000Y-112750000D01*
X75050000Y-109800000D02*
X74300000Y-109800000D01*
X67440000Y-107540000D02*
X75060000Y-107540000D01*
X75060000Y-113510000D01*
X67440000Y-113510000D01*
X67440000Y-107540000D01*
X67450000Y-107550000D02*
X69250000Y-107550000D01*
X69250000Y-108300000D01*
X67450000Y-108300000D01*
X67450000Y-107550000D01*
X70750000Y-107550000D02*
X71750000Y-107550000D01*
X71750000Y-108300000D01*
X70750000Y-108300000D01*
X70750000Y-107550000D01*
X73250000Y-107550000D02*
X75050000Y-107550000D01*
X75050000Y-108300000D01*
X73250000Y-108300000D01*
X73250000Y-107550000D01*
%TO.C,J5*%
X53250000Y-117550000D02*
X55050000Y-117550000D01*
X55050000Y-118300000D01*
X53250000Y-118300000D01*
X53250000Y-117550000D01*
X48250000Y-117550000D02*
X51750000Y-117550000D01*
X51750000Y-118300000D01*
X48250000Y-118300000D01*
X48250000Y-117550000D01*
X44950000Y-117550000D02*
X46750000Y-117550000D01*
X46750000Y-118300000D01*
X44950000Y-118300000D01*
X44950000Y-117550000D01*
X44940000Y-117540000D02*
X55060000Y-117540000D01*
X55060000Y-123510000D01*
X44940000Y-123510000D01*
X44940000Y-117540000D01*
X55050000Y-119800000D02*
X54300000Y-119800000D01*
X54300000Y-122750000D02*
X50000000Y-122750000D01*
X54300000Y-119800000D02*
X54300000Y-122750000D01*
X45900000Y-117250000D02*
X44650000Y-117250000D01*
X45700000Y-122750000D02*
X50000000Y-122750000D01*
X45700000Y-119800000D02*
X45700000Y-122750000D01*
X44950000Y-119800000D02*
X45700000Y-119800000D01*
X44650000Y-117250000D02*
X44650000Y-118500000D01*
%TO.C,J8*%
X53250000Y-147550000D02*
X55050000Y-147550000D01*
X55050000Y-148300000D01*
X53250000Y-148300000D01*
X53250000Y-147550000D01*
X48250000Y-147550000D02*
X51750000Y-147550000D01*
X51750000Y-148300000D01*
X48250000Y-148300000D01*
X48250000Y-147550000D01*
X44950000Y-147550000D02*
X46750000Y-147550000D01*
X46750000Y-148300000D01*
X44950000Y-148300000D01*
X44950000Y-147550000D01*
X44940000Y-147540000D02*
X55060000Y-147540000D01*
X55060000Y-153510000D01*
X44940000Y-153510000D01*
X44940000Y-147540000D01*
X55050000Y-149800000D02*
X54300000Y-149800000D01*
X54300000Y-152750000D02*
X50000000Y-152750000D01*
X54300000Y-149800000D02*
X54300000Y-152750000D01*
X45900000Y-147250000D02*
X44650000Y-147250000D01*
X45700000Y-152750000D02*
X50000000Y-152750000D01*
X45700000Y-149800000D02*
X45700000Y-152750000D01*
X44950000Y-149800000D02*
X45700000Y-149800000D01*
X44650000Y-147250000D02*
X44650000Y-148500000D01*
%TO.C,J6*%
X53250000Y-127550000D02*
X55050000Y-127550000D01*
X55050000Y-128300000D01*
X53250000Y-128300000D01*
X53250000Y-127550000D01*
X48250000Y-127550000D02*
X51750000Y-127550000D01*
X51750000Y-128300000D01*
X48250000Y-128300000D01*
X48250000Y-127550000D01*
X44950000Y-127550000D02*
X46750000Y-127550000D01*
X46750000Y-128300000D01*
X44950000Y-128300000D01*
X44950000Y-127550000D01*
X44940000Y-127540000D02*
X55060000Y-127540000D01*
X55060000Y-133510000D01*
X44940000Y-133510000D01*
X44940000Y-127540000D01*
X55050000Y-129800000D02*
X54300000Y-129800000D01*
X54300000Y-132750000D02*
X50000000Y-132750000D01*
X54300000Y-129800000D02*
X54300000Y-132750000D01*
X45900000Y-127250000D02*
X44650000Y-127250000D01*
X45700000Y-132750000D02*
X50000000Y-132750000D01*
X45700000Y-129800000D02*
X45700000Y-132750000D01*
X44950000Y-129800000D02*
X45700000Y-129800000D01*
X44650000Y-127250000D02*
X44650000Y-128500000D01*
%TO.C,J7*%
X53250000Y-137550000D02*
X55050000Y-137550000D01*
X55050000Y-138300000D01*
X53250000Y-138300000D01*
X53250000Y-137550000D01*
X48250000Y-137550000D02*
X51750000Y-137550000D01*
X51750000Y-138300000D01*
X48250000Y-138300000D01*
X48250000Y-137550000D01*
X44950000Y-137550000D02*
X46750000Y-137550000D01*
X46750000Y-138300000D01*
X44950000Y-138300000D01*
X44950000Y-137550000D01*
X44940000Y-137540000D02*
X55060000Y-137540000D01*
X55060000Y-143510000D01*
X44940000Y-143510000D01*
X44940000Y-137540000D01*
X55050000Y-139800000D02*
X54300000Y-139800000D01*
X54300000Y-142750000D02*
X50000000Y-142750000D01*
X54300000Y-139800000D02*
X54300000Y-142750000D01*
X45900000Y-137250000D02*
X44650000Y-137250000D01*
X45700000Y-142750000D02*
X50000000Y-142750000D01*
X45700000Y-139800000D02*
X45700000Y-142750000D01*
X44950000Y-139800000D02*
X45700000Y-139800000D01*
X44650000Y-137250000D02*
X44650000Y-138500000D01*
%TO.C,J2*%
X53250000Y-77550000D02*
X55050000Y-77550000D01*
X55050000Y-78300000D01*
X53250000Y-78300000D01*
X53250000Y-77550000D01*
X48250000Y-77550000D02*
X51750000Y-77550000D01*
X51750000Y-78300000D01*
X48250000Y-78300000D01*
X48250000Y-77550000D01*
X44950000Y-77550000D02*
X46750000Y-77550000D01*
X46750000Y-78300000D01*
X44950000Y-78300000D01*
X44950000Y-77550000D01*
X44940000Y-77540000D02*
X55060000Y-77540000D01*
X55060000Y-83510000D01*
X44940000Y-83510000D01*
X44940000Y-77540000D01*
X55050000Y-79800000D02*
X54300000Y-79800000D01*
X54300000Y-82750000D02*
X50000000Y-82750000D01*
X54300000Y-79800000D02*
X54300000Y-82750000D01*
X45900000Y-77250000D02*
X44650000Y-77250000D01*
X45700000Y-82750000D02*
X50000000Y-82750000D01*
X45700000Y-79800000D02*
X45700000Y-82750000D01*
X44950000Y-79800000D02*
X45700000Y-79800000D01*
X44650000Y-77250000D02*
X44650000Y-78500000D01*
%TO.C,J4*%
X53250000Y-97550000D02*
X55050000Y-97550000D01*
X55050000Y-98300000D01*
X53250000Y-98300000D01*
X53250000Y-97550000D01*
X48250000Y-97550000D02*
X51750000Y-97550000D01*
X51750000Y-98300000D01*
X48250000Y-98300000D01*
X48250000Y-97550000D01*
X44950000Y-97550000D02*
X46750000Y-97550000D01*
X46750000Y-98300000D01*
X44950000Y-98300000D01*
X44950000Y-97550000D01*
X44940000Y-97540000D02*
X55060000Y-97540000D01*
X55060000Y-103510000D01*
X44940000Y-103510000D01*
X44940000Y-97540000D01*
X55050000Y-99800000D02*
X54300000Y-99800000D01*
X54300000Y-102750000D02*
X50000000Y-102750000D01*
X54300000Y-99800000D02*
X54300000Y-102750000D01*
X45900000Y-97250000D02*
X44650000Y-97250000D01*
X45700000Y-102750000D02*
X50000000Y-102750000D01*
X45700000Y-99800000D02*
X45700000Y-102750000D01*
X44950000Y-99800000D02*
X45700000Y-99800000D01*
X44650000Y-97250000D02*
X44650000Y-98500000D01*
%TO.C,J1*%
X53250000Y-67550000D02*
X55050000Y-67550000D01*
X55050000Y-68300000D01*
X53250000Y-68300000D01*
X53250000Y-67550000D01*
X48250000Y-67550000D02*
X51750000Y-67550000D01*
X51750000Y-68300000D01*
X48250000Y-68300000D01*
X48250000Y-67550000D01*
X44950000Y-67550000D02*
X46750000Y-67550000D01*
X46750000Y-68300000D01*
X44950000Y-68300000D01*
X44950000Y-67550000D01*
X44940000Y-67540000D02*
X55060000Y-67540000D01*
X55060000Y-73510000D01*
X44940000Y-73510000D01*
X44940000Y-67540000D01*
X55050000Y-69800000D02*
X54300000Y-69800000D01*
X54300000Y-72750000D02*
X50000000Y-72750000D01*
X54300000Y-69800000D02*
X54300000Y-72750000D01*
X45900000Y-67250000D02*
X44650000Y-67250000D01*
X45700000Y-72750000D02*
X50000000Y-72750000D01*
X45700000Y-69800000D02*
X45700000Y-72750000D01*
X44950000Y-69800000D02*
X45700000Y-69800000D01*
X44650000Y-67250000D02*
X44650000Y-68500000D01*
%TO.C,J3*%
X53250000Y-87550000D02*
X55050000Y-87550000D01*
X55050000Y-88300000D01*
X53250000Y-88300000D01*
X53250000Y-87550000D01*
X48250000Y-87550000D02*
X51750000Y-87550000D01*
X51750000Y-88300000D01*
X48250000Y-88300000D01*
X48250000Y-87550000D01*
X44950000Y-87550000D02*
X46750000Y-87550000D01*
X46750000Y-88300000D01*
X44950000Y-88300000D01*
X44950000Y-87550000D01*
X44940000Y-87540000D02*
X55060000Y-87540000D01*
X55060000Y-93510000D01*
X44940000Y-93510000D01*
X44940000Y-87540000D01*
X55050000Y-89800000D02*
X54300000Y-89800000D01*
X54300000Y-92750000D02*
X50000000Y-92750000D01*
X54300000Y-89800000D02*
X54300000Y-92750000D01*
X45900000Y-87250000D02*
X44650000Y-87250000D01*
X45700000Y-92750000D02*
X50000000Y-92750000D01*
X45700000Y-89800000D02*
X45700000Y-92750000D01*
X44950000Y-89800000D02*
X45700000Y-89800000D01*
X44650000Y-87250000D02*
X44650000Y-88500000D01*
%TO.C,J25*%
X53500000Y-107550000D02*
X55300000Y-107550000D01*
X55300000Y-108300000D01*
X53500000Y-108300000D01*
X53500000Y-107550000D01*
X46000000Y-107550000D02*
X52000000Y-107550000D01*
X52000000Y-108300000D01*
X46000000Y-108300000D01*
X46000000Y-107550000D01*
X42700000Y-107550000D02*
X44500000Y-107550000D01*
X44500000Y-108300000D01*
X42700000Y-108300000D01*
X42700000Y-107550000D01*
X42690000Y-107540000D02*
X55310000Y-107540000D01*
X55310000Y-113510000D01*
X42690000Y-113510000D01*
X42690000Y-107540000D01*
X55300000Y-109800000D02*
X54550000Y-109800000D01*
X54550000Y-112750000D02*
X49000000Y-112750000D01*
X54550000Y-109800000D02*
X54550000Y-112750000D01*
X43650000Y-107250000D02*
X42400000Y-107250000D01*
X43450000Y-112750000D02*
X49000000Y-112750000D01*
X43450000Y-109800000D02*
X43450000Y-112750000D01*
X42700000Y-109800000D02*
X43450000Y-109800000D01*
X42400000Y-107250000D02*
X42400000Y-108500000D01*
%TO.C,C2*%
X89087500Y-42620000D02*
X89087500Y-37380000D01*
X89424500Y-42620000D02*
X89087500Y-42620000D01*
X91827500Y-42620000D02*
X91490500Y-42620000D01*
X89087500Y-37380000D02*
X89424500Y-37380000D01*
X91490500Y-37380000D02*
X91827500Y-37380000D01*
X91827500Y-37380000D02*
X91827500Y-42620000D01*
%TO.C,C3*%
X57240113Y-74025000D02*
X57740113Y-74025000D01*
X57490113Y-73775000D02*
X57490113Y-74275000D01*
X60044888Y-72920000D02*
X60044888Y-78080000D01*
X60084888Y-72920000D02*
X60084888Y-78080000D01*
X60124888Y-72921000D02*
X60124888Y-78079000D01*
X60164888Y-72923000D02*
X60164888Y-78077000D01*
X60204888Y-72925000D02*
X60204888Y-78075000D01*
X60244888Y-72928000D02*
X60244888Y-78072000D01*
X60284888Y-72931000D02*
X60284888Y-74460000D01*
X60284888Y-76540000D02*
X60284888Y-78069000D01*
X60324888Y-72935000D02*
X60324888Y-74460000D01*
X60324888Y-76540000D02*
X60324888Y-78065000D01*
X60364888Y-72940000D02*
X60364888Y-74460000D01*
X60364888Y-76540000D02*
X60364888Y-78060000D01*
X60404888Y-72945000D02*
X60404888Y-74460000D01*
X60404888Y-76540000D02*
X60404888Y-78055000D01*
X60444888Y-72951000D02*
X60444888Y-74460000D01*
X60444888Y-76540000D02*
X60444888Y-78049000D01*
X60484888Y-72957000D02*
X60484888Y-74460000D01*
X60484888Y-76540000D02*
X60484888Y-78043000D01*
X60524888Y-72964000D02*
X60524888Y-74460000D01*
X60524888Y-76540000D02*
X60524888Y-78036000D01*
X60564888Y-72972000D02*
X60564888Y-74460000D01*
X60564888Y-76540000D02*
X60564888Y-78028000D01*
X60604888Y-72981000D02*
X60604888Y-74460000D01*
X60604888Y-76540000D02*
X60604888Y-78019000D01*
X60644888Y-72990000D02*
X60644888Y-74460000D01*
X60644888Y-76540000D02*
X60644888Y-78010000D01*
X60684888Y-72999000D02*
X60684888Y-74460000D01*
X60684888Y-76540000D02*
X60684888Y-78001000D01*
X60724888Y-73010000D02*
X60724888Y-74460000D01*
X60724888Y-76540000D02*
X60724888Y-77990000D01*
X60764888Y-73021000D02*
X60764888Y-74460000D01*
X60764888Y-76540000D02*
X60764888Y-77979000D01*
X60804888Y-73033000D02*
X60804888Y-74460000D01*
X60804888Y-76540000D02*
X60804888Y-77967000D01*
X60844888Y-73045000D02*
X60844888Y-74460000D01*
X60844888Y-76540000D02*
X60844888Y-77955000D01*
X60884888Y-73058000D02*
X60884888Y-74460000D01*
X60884888Y-76540000D02*
X60884888Y-77942000D01*
X60924888Y-73072000D02*
X60924888Y-74460000D01*
X60924888Y-76540000D02*
X60924888Y-77928000D01*
X60964888Y-73087000D02*
X60964888Y-74460000D01*
X60964888Y-76540000D02*
X60964888Y-77913000D01*
X61004888Y-73102000D02*
X61004888Y-74460000D01*
X61004888Y-76540000D02*
X61004888Y-77898000D01*
X61044888Y-73118000D02*
X61044888Y-74460000D01*
X61044888Y-76540000D02*
X61044888Y-77882000D01*
X61084888Y-73135000D02*
X61084888Y-74460000D01*
X61084888Y-76540000D02*
X61084888Y-77865000D01*
X61124888Y-73153000D02*
X61124888Y-74460000D01*
X61124888Y-76540000D02*
X61124888Y-77847000D01*
X61164888Y-73171000D02*
X61164888Y-74460000D01*
X61164888Y-76540000D02*
X61164888Y-77829000D01*
X61204888Y-73191000D02*
X61204888Y-74460000D01*
X61204888Y-76540000D02*
X61204888Y-77809000D01*
X61244888Y-73211000D02*
X61244888Y-74460000D01*
X61244888Y-76540000D02*
X61244888Y-77789000D01*
X61284888Y-73232000D02*
X61284888Y-74460000D01*
X61284888Y-76540000D02*
X61284888Y-77768000D01*
X61324888Y-73254000D02*
X61324888Y-74460000D01*
X61324888Y-76540000D02*
X61324888Y-77746000D01*
X61364888Y-73277000D02*
X61364888Y-74460000D01*
X61364888Y-76540000D02*
X61364888Y-77723000D01*
X61404888Y-73301000D02*
X61404888Y-74460000D01*
X61404888Y-76540000D02*
X61404888Y-77699000D01*
X61444888Y-73325000D02*
X61444888Y-74460000D01*
X61444888Y-76540000D02*
X61444888Y-77675000D01*
X61484888Y-73351000D02*
X61484888Y-74460000D01*
X61484888Y-76540000D02*
X61484888Y-77649000D01*
X61524888Y-73378000D02*
X61524888Y-74460000D01*
X61524888Y-76540000D02*
X61524888Y-77622000D01*
X61564888Y-73406000D02*
X61564888Y-74460000D01*
X61564888Y-76540000D02*
X61564888Y-77594000D01*
X61604888Y-73435000D02*
X61604888Y-74460000D01*
X61604888Y-76540000D02*
X61604888Y-77565000D01*
X61644888Y-73465000D02*
X61644888Y-74460000D01*
X61644888Y-76540000D02*
X61644888Y-77535000D01*
X61684888Y-73497000D02*
X61684888Y-74460000D01*
X61684888Y-76540000D02*
X61684888Y-77503000D01*
X61724888Y-73530000D02*
X61724888Y-74460000D01*
X61724888Y-76540000D02*
X61724888Y-77470000D01*
X61764888Y-73564000D02*
X61764888Y-74460000D01*
X61764888Y-76540000D02*
X61764888Y-77436000D01*
X61804888Y-73599000D02*
X61804888Y-74460000D01*
X61804888Y-76540000D02*
X61804888Y-77401000D01*
X61844888Y-73636000D02*
X61844888Y-74460000D01*
X61844888Y-76540000D02*
X61844888Y-77364000D01*
X61884888Y-73675000D02*
X61884888Y-74460000D01*
X61884888Y-76540000D02*
X61884888Y-77325000D01*
X61924888Y-73715000D02*
X61924888Y-74460000D01*
X61924888Y-76540000D02*
X61924888Y-77285000D01*
X61964888Y-73757000D02*
X61964888Y-74460000D01*
X61964888Y-76540000D02*
X61964888Y-77243000D01*
X62004888Y-73801000D02*
X62004888Y-74460000D01*
X62004888Y-76540000D02*
X62004888Y-77199000D01*
X62044888Y-73848000D02*
X62044888Y-74460000D01*
X62044888Y-76540000D02*
X62044888Y-77152000D01*
X62084888Y-73896000D02*
X62084888Y-74460000D01*
X62084888Y-76540000D02*
X62084888Y-77104000D01*
X62124888Y-73947000D02*
X62124888Y-74460000D01*
X62124888Y-76540000D02*
X62124888Y-77053000D01*
X62164888Y-74001000D02*
X62164888Y-74460000D01*
X62164888Y-76540000D02*
X62164888Y-76999000D01*
X62204888Y-74057000D02*
X62204888Y-74460000D01*
X62204888Y-76540000D02*
X62204888Y-76943000D01*
X62244888Y-74117000D02*
X62244888Y-74460000D01*
X62244888Y-76540000D02*
X62244888Y-76883000D01*
X62284888Y-74181000D02*
X62284888Y-74460000D01*
X62284888Y-76540000D02*
X62284888Y-76819000D01*
X62324888Y-74249000D02*
X62324888Y-74460000D01*
X62324888Y-76540000D02*
X62324888Y-76751000D01*
X62364888Y-74323000D02*
X62364888Y-76677000D01*
X62404888Y-74402000D02*
X62404888Y-76598000D01*
X62444888Y-74489000D02*
X62444888Y-76511000D01*
X62484888Y-74586000D02*
X62484888Y-76414000D01*
X62524888Y-74695000D02*
X62524888Y-76305000D01*
X62564888Y-74823000D02*
X62564888Y-76177000D01*
X62604888Y-74983000D02*
X62604888Y-76017000D01*
X62644888Y-75217000D02*
X62644888Y-75783000D01*
X62664888Y-75500000D02*
G75*
G02*
X57424888Y-75500000I-2620000J0D01*
G01*
X57424888Y-75500000D02*
G75*
G02*
X62664888Y-75500000I2620000J0D01*
G01*
%TO.C,C1*%
X36870000Y-36880000D02*
X36870000Y-42120000D01*
X36533000Y-36880000D02*
X36870000Y-36880000D01*
X34130000Y-36880000D02*
X34467000Y-36880000D01*
X36870000Y-42120000D02*
X36533000Y-42120000D01*
X34467000Y-42120000D02*
X34130000Y-42120000D01*
X34130000Y-42120000D02*
X34130000Y-36880000D01*
%TO.C,J23*%
X67150000Y-117250000D02*
X67150000Y-118500000D01*
X67450000Y-119800000D02*
X68200000Y-119800000D01*
X68200000Y-119800000D02*
X68200000Y-122750000D01*
X68200000Y-122750000D02*
X71250000Y-122750000D01*
X68400000Y-117250000D02*
X67150000Y-117250000D01*
X74300000Y-119800000D02*
X74300000Y-122750000D01*
X74300000Y-122750000D02*
X71250000Y-122750000D01*
X75050000Y-119800000D02*
X74300000Y-119800000D01*
X67440000Y-117540000D02*
X75060000Y-117540000D01*
X75060000Y-123510000D01*
X67440000Y-123510000D01*
X67440000Y-117540000D01*
X67450000Y-117550000D02*
X69250000Y-117550000D01*
X69250000Y-118300000D01*
X67450000Y-118300000D01*
X67450000Y-117550000D01*
X70750000Y-117550000D02*
X71750000Y-117550000D01*
X71750000Y-118300000D01*
X70750000Y-118300000D01*
X70750000Y-117550000D01*
X73250000Y-117550000D02*
X75050000Y-117550000D01*
X75050000Y-118300000D01*
X73250000Y-118300000D01*
X73250000Y-117550000D01*
%TO.C,J24*%
X109650000Y-117250000D02*
X109650000Y-118500000D01*
X109950000Y-119800000D02*
X110700000Y-119800000D01*
X110700000Y-119800000D02*
X110700000Y-122750000D01*
X110700000Y-122750000D02*
X113750000Y-122750000D01*
X110900000Y-117250000D02*
X109650000Y-117250000D01*
X116800000Y-119800000D02*
X116800000Y-122750000D01*
X116800000Y-122750000D02*
X113750000Y-122750000D01*
X117550000Y-119800000D02*
X116800000Y-119800000D01*
X109940000Y-117540000D02*
X117560000Y-117540000D01*
X117560000Y-123510000D01*
X109940000Y-123510000D01*
X109940000Y-117540000D01*
X109950000Y-117550000D02*
X111750000Y-117550000D01*
X111750000Y-118300000D01*
X109950000Y-118300000D01*
X109950000Y-117550000D01*
X113250000Y-117550000D02*
X114250000Y-117550000D01*
X114250000Y-118300000D01*
X113250000Y-118300000D01*
X113250000Y-117550000D01*
X115750000Y-117550000D02*
X117550000Y-117550000D01*
X117550000Y-118300000D01*
X115750000Y-118300000D01*
X115750000Y-117550000D01*
%TO.C,J27*%
X67150000Y-137250000D02*
X67150000Y-138500000D01*
X67450000Y-139800000D02*
X68200000Y-139800000D01*
X68200000Y-139800000D02*
X68200000Y-142750000D01*
X68200000Y-142750000D02*
X71250000Y-142750000D01*
X68400000Y-137250000D02*
X67150000Y-137250000D01*
X74300000Y-139800000D02*
X74300000Y-142750000D01*
X74300000Y-142750000D02*
X71250000Y-142750000D01*
X75050000Y-139800000D02*
X74300000Y-139800000D01*
X67440000Y-137540000D02*
X75060000Y-137540000D01*
X75060000Y-143510000D01*
X67440000Y-143510000D01*
X67440000Y-137540000D01*
X67450000Y-137550000D02*
X69250000Y-137550000D01*
X69250000Y-138300000D01*
X67450000Y-138300000D01*
X67450000Y-137550000D01*
X70750000Y-137550000D02*
X71750000Y-137550000D01*
X71750000Y-138300000D01*
X70750000Y-138300000D01*
X70750000Y-137550000D01*
X73250000Y-137550000D02*
X75050000Y-137550000D01*
X75050000Y-138300000D01*
X73250000Y-138300000D01*
X73250000Y-137550000D01*
%TO.C,J28*%
X67150000Y-127250000D02*
X67150000Y-128500000D01*
X67450000Y-129800000D02*
X68200000Y-129800000D01*
X68200000Y-129800000D02*
X68200000Y-132750000D01*
X68200000Y-132750000D02*
X71250000Y-132750000D01*
X68400000Y-127250000D02*
X67150000Y-127250000D01*
X74300000Y-129800000D02*
X74300000Y-132750000D01*
X74300000Y-132750000D02*
X71250000Y-132750000D01*
X75050000Y-129800000D02*
X74300000Y-129800000D01*
X67440000Y-127540000D02*
X75060000Y-127540000D01*
X75060000Y-133510000D01*
X67440000Y-133510000D01*
X67440000Y-127540000D01*
X67450000Y-127550000D02*
X69250000Y-127550000D01*
X69250000Y-128300000D01*
X67450000Y-128300000D01*
X67450000Y-127550000D01*
X70750000Y-127550000D02*
X71750000Y-127550000D01*
X71750000Y-128300000D01*
X70750000Y-128300000D01*
X70750000Y-127550000D01*
X73250000Y-127550000D02*
X75050000Y-127550000D01*
X75050000Y-128300000D01*
X73250000Y-128300000D01*
X73250000Y-127550000D01*
%TO.C,J29*%
X109650000Y-137250000D02*
X109650000Y-138500000D01*
X109950000Y-139800000D02*
X110700000Y-139800000D01*
X110700000Y-139800000D02*
X110700000Y-142750000D01*
X110700000Y-142750000D02*
X113750000Y-142750000D01*
X110900000Y-137250000D02*
X109650000Y-137250000D01*
X116800000Y-139800000D02*
X116800000Y-142750000D01*
X116800000Y-142750000D02*
X113750000Y-142750000D01*
X117550000Y-139800000D02*
X116800000Y-139800000D01*
X109940000Y-137540000D02*
X117560000Y-137540000D01*
X117560000Y-143510000D01*
X109940000Y-143510000D01*
X109940000Y-137540000D01*
X109950000Y-137550000D02*
X111750000Y-137550000D01*
X111750000Y-138300000D01*
X109950000Y-138300000D01*
X109950000Y-137550000D01*
X113250000Y-137550000D02*
X114250000Y-137550000D01*
X114250000Y-138300000D01*
X113250000Y-138300000D01*
X113250000Y-137550000D01*
X115750000Y-137550000D02*
X117550000Y-137550000D01*
X117550000Y-138300000D01*
X115750000Y-138300000D01*
X115750000Y-137550000D01*
%TO.C,J10*%
X89650000Y-77250000D02*
X89650000Y-78500000D01*
X89950000Y-79800000D02*
X90700000Y-79800000D01*
X90700000Y-79800000D02*
X90700000Y-82750000D01*
X90700000Y-82750000D02*
X95000000Y-82750000D01*
X90900000Y-77250000D02*
X89650000Y-77250000D01*
X99300000Y-79800000D02*
X99300000Y-82750000D01*
X99300000Y-82750000D02*
X95000000Y-82750000D01*
X100050000Y-79800000D02*
X99300000Y-79800000D01*
X89940000Y-77540000D02*
X100060000Y-77540000D01*
X100060000Y-83510000D01*
X89940000Y-83510000D01*
X89940000Y-77540000D01*
X89950000Y-77550000D02*
X91750000Y-77550000D01*
X91750000Y-78300000D01*
X89950000Y-78300000D01*
X89950000Y-77550000D01*
X93250000Y-77550000D02*
X96750000Y-77550000D01*
X96750000Y-78300000D01*
X93250000Y-78300000D01*
X93250000Y-77550000D01*
X98250000Y-77550000D02*
X100050000Y-77550000D01*
X100050000Y-78300000D01*
X98250000Y-78300000D01*
X98250000Y-77550000D01*
%TO.C,J11*%
X89650000Y-87250000D02*
X89650000Y-88500000D01*
X89950000Y-89800000D02*
X90700000Y-89800000D01*
X90700000Y-89800000D02*
X90700000Y-92750000D01*
X90700000Y-92750000D02*
X95000000Y-92750000D01*
X90900000Y-87250000D02*
X89650000Y-87250000D01*
X99300000Y-89800000D02*
X99300000Y-92750000D01*
X99300000Y-92750000D02*
X95000000Y-92750000D01*
X100050000Y-89800000D02*
X99300000Y-89800000D01*
X89940000Y-87540000D02*
X100060000Y-87540000D01*
X100060000Y-93510000D01*
X89940000Y-93510000D01*
X89940000Y-87540000D01*
X89950000Y-87550000D02*
X91750000Y-87550000D01*
X91750000Y-88300000D01*
X89950000Y-88300000D01*
X89950000Y-87550000D01*
X93250000Y-87550000D02*
X96750000Y-87550000D01*
X96750000Y-88300000D01*
X93250000Y-88300000D01*
X93250000Y-87550000D01*
X98250000Y-87550000D02*
X100050000Y-87550000D01*
X100050000Y-88300000D01*
X98250000Y-88300000D01*
X98250000Y-87550000D01*
%TO.C,J12*%
X89650000Y-97250000D02*
X89650000Y-98500000D01*
X89950000Y-99800000D02*
X90700000Y-99800000D01*
X90700000Y-99800000D02*
X90700000Y-102750000D01*
X90700000Y-102750000D02*
X95000000Y-102750000D01*
X90900000Y-97250000D02*
X89650000Y-97250000D01*
X99300000Y-99800000D02*
X99300000Y-102750000D01*
X99300000Y-102750000D02*
X95000000Y-102750000D01*
X100050000Y-99800000D02*
X99300000Y-99800000D01*
X89940000Y-97540000D02*
X100060000Y-97540000D01*
X100060000Y-103510000D01*
X89940000Y-103510000D01*
X89940000Y-97540000D01*
X89950000Y-97550000D02*
X91750000Y-97550000D01*
X91750000Y-98300000D01*
X89950000Y-98300000D01*
X89950000Y-97550000D01*
X93250000Y-97550000D02*
X96750000Y-97550000D01*
X96750000Y-98300000D01*
X93250000Y-98300000D01*
X93250000Y-97550000D01*
X98250000Y-97550000D02*
X100050000Y-97550000D01*
X100050000Y-98300000D01*
X98250000Y-98300000D01*
X98250000Y-97550000D01*
%TO.C,J13*%
X89650000Y-117250000D02*
X89650000Y-118500000D01*
X89950000Y-119800000D02*
X90700000Y-119800000D01*
X90700000Y-119800000D02*
X90700000Y-122750000D01*
X90700000Y-122750000D02*
X95000000Y-122750000D01*
X90900000Y-117250000D02*
X89650000Y-117250000D01*
X99300000Y-119800000D02*
X99300000Y-122750000D01*
X99300000Y-122750000D02*
X95000000Y-122750000D01*
X100050000Y-119800000D02*
X99300000Y-119800000D01*
X89940000Y-117540000D02*
X100060000Y-117540000D01*
X100060000Y-123510000D01*
X89940000Y-123510000D01*
X89940000Y-117540000D01*
X89950000Y-117550000D02*
X91750000Y-117550000D01*
X91750000Y-118300000D01*
X89950000Y-118300000D01*
X89950000Y-117550000D01*
X93250000Y-117550000D02*
X96750000Y-117550000D01*
X96750000Y-118300000D01*
X93250000Y-118300000D01*
X93250000Y-117550000D01*
X98250000Y-117550000D02*
X100050000Y-117550000D01*
X100050000Y-118300000D01*
X98250000Y-118300000D01*
X98250000Y-117550000D01*
%TO.C,J9*%
X89650000Y-67250000D02*
X89650000Y-68500000D01*
X89950000Y-69800000D02*
X90700000Y-69800000D01*
X90700000Y-69800000D02*
X90700000Y-72750000D01*
X90700000Y-72750000D02*
X95000000Y-72750000D01*
X90900000Y-67250000D02*
X89650000Y-67250000D01*
X99300000Y-69800000D02*
X99300000Y-72750000D01*
X99300000Y-72750000D02*
X95000000Y-72750000D01*
X100050000Y-69800000D02*
X99300000Y-69800000D01*
X89940000Y-67540000D02*
X100060000Y-67540000D01*
X100060000Y-73510000D01*
X89940000Y-73510000D01*
X89940000Y-67540000D01*
X89950000Y-67550000D02*
X91750000Y-67550000D01*
X91750000Y-68300000D01*
X89950000Y-68300000D01*
X89950000Y-67550000D01*
X93250000Y-67550000D02*
X96750000Y-67550000D01*
X96750000Y-68300000D01*
X93250000Y-68300000D01*
X93250000Y-67550000D01*
X98250000Y-67550000D02*
X100050000Y-67550000D01*
X100050000Y-68300000D01*
X98250000Y-68300000D01*
X98250000Y-67550000D01*
%TO.C,J16*%
X89650000Y-147250000D02*
X89650000Y-148500000D01*
X89950000Y-149800000D02*
X90700000Y-149800000D01*
X90700000Y-149800000D02*
X90700000Y-152750000D01*
X90700000Y-152750000D02*
X95000000Y-152750000D01*
X90900000Y-147250000D02*
X89650000Y-147250000D01*
X99300000Y-149800000D02*
X99300000Y-152750000D01*
X99300000Y-152750000D02*
X95000000Y-152750000D01*
X100050000Y-149800000D02*
X99300000Y-149800000D01*
X89940000Y-147540000D02*
X100060000Y-147540000D01*
X100060000Y-153510000D01*
X89940000Y-153510000D01*
X89940000Y-147540000D01*
X89950000Y-147550000D02*
X91750000Y-147550000D01*
X91750000Y-148300000D01*
X89950000Y-148300000D01*
X89950000Y-147550000D01*
X93250000Y-147550000D02*
X96750000Y-147550000D01*
X96750000Y-148300000D01*
X93250000Y-148300000D01*
X93250000Y-147550000D01*
X98250000Y-147550000D02*
X100050000Y-147550000D01*
X100050000Y-148300000D01*
X98250000Y-148300000D01*
X98250000Y-147550000D01*
%TO.C,J14*%
X89650000Y-127250000D02*
X89650000Y-128500000D01*
X89950000Y-129800000D02*
X90700000Y-129800000D01*
X90700000Y-129800000D02*
X90700000Y-132750000D01*
X90700000Y-132750000D02*
X95000000Y-132750000D01*
X90900000Y-127250000D02*
X89650000Y-127250000D01*
X99300000Y-129800000D02*
X99300000Y-132750000D01*
X99300000Y-132750000D02*
X95000000Y-132750000D01*
X100050000Y-129800000D02*
X99300000Y-129800000D01*
X89940000Y-127540000D02*
X100060000Y-127540000D01*
X100060000Y-133510000D01*
X89940000Y-133510000D01*
X89940000Y-127540000D01*
X89950000Y-127550000D02*
X91750000Y-127550000D01*
X91750000Y-128300000D01*
X89950000Y-128300000D01*
X89950000Y-127550000D01*
X93250000Y-127550000D02*
X96750000Y-127550000D01*
X96750000Y-128300000D01*
X93250000Y-128300000D01*
X93250000Y-127550000D01*
X98250000Y-127550000D02*
X100050000Y-127550000D01*
X100050000Y-128300000D01*
X98250000Y-128300000D01*
X98250000Y-127550000D01*
%TO.C,J15*%
X89650000Y-137250000D02*
X89650000Y-138500000D01*
X89950000Y-139800000D02*
X90700000Y-139800000D01*
X90700000Y-139800000D02*
X90700000Y-142750000D01*
X90700000Y-142750000D02*
X95000000Y-142750000D01*
X90900000Y-137250000D02*
X89650000Y-137250000D01*
X99300000Y-139800000D02*
X99300000Y-142750000D01*
X99300000Y-142750000D02*
X95000000Y-142750000D01*
X100050000Y-139800000D02*
X99300000Y-139800000D01*
X89940000Y-137540000D02*
X100060000Y-137540000D01*
X100060000Y-143510000D01*
X89940000Y-143510000D01*
X89940000Y-137540000D01*
X89950000Y-137550000D02*
X91750000Y-137550000D01*
X91750000Y-138300000D01*
X89950000Y-138300000D01*
X89950000Y-137550000D01*
X93250000Y-137550000D02*
X96750000Y-137550000D01*
X96750000Y-138300000D01*
X93250000Y-138300000D01*
X93250000Y-137550000D01*
X98250000Y-137550000D02*
X100050000Y-137550000D01*
X100050000Y-138300000D01*
X98250000Y-138300000D01*
X98250000Y-137550000D01*
%TO.C,J26*%
X87150000Y-107250000D02*
X87150000Y-108500000D01*
X87450000Y-109800000D02*
X88200000Y-109800000D01*
X88200000Y-109800000D02*
X88200000Y-112750000D01*
X88200000Y-112750000D02*
X93750000Y-112750000D01*
X88400000Y-107250000D02*
X87150000Y-107250000D01*
X99300000Y-109800000D02*
X99300000Y-112750000D01*
X99300000Y-112750000D02*
X93750000Y-112750000D01*
X100050000Y-109800000D02*
X99300000Y-109800000D01*
X87440000Y-107540000D02*
X100060000Y-107540000D01*
X100060000Y-113510000D01*
X87440000Y-113510000D01*
X87440000Y-107540000D01*
X87450000Y-107550000D02*
X89250000Y-107550000D01*
X89250000Y-108300000D01*
X87450000Y-108300000D01*
X87450000Y-107550000D01*
X90750000Y-107550000D02*
X96750000Y-107550000D01*
X96750000Y-108300000D01*
X90750000Y-108300000D01*
X90750000Y-107550000D01*
X98250000Y-107550000D02*
X100050000Y-107550000D01*
X100050000Y-108300000D01*
X98250000Y-108300000D01*
X98250000Y-107550000D01*
%TO.C,J32*%
X81120000Y-87310000D02*
X82500000Y-87310000D01*
X81120000Y-88690000D02*
X81120000Y-87310000D01*
X81120000Y-89960000D02*
X81120000Y-97690000D01*
X81120000Y-89960000D02*
X83880000Y-89960000D01*
X81120000Y-97690000D02*
X83880000Y-97690000D01*
X83880000Y-89960000D02*
X83880000Y-97690000D01*
%TO.C,J31*%
X81120000Y-104690000D02*
X82500000Y-104690000D01*
X81120000Y-106070000D02*
X81120000Y-104690000D01*
X81120000Y-107340000D02*
X81120000Y-130310000D01*
X81120000Y-107340000D02*
X83880000Y-107340000D01*
X81120000Y-130310000D02*
X83880000Y-130310000D01*
X83880000Y-107340000D02*
X83880000Y-130310000D01*
%TO.C,R1*%
X60000000Y-136040000D02*
X60000000Y-136810000D01*
X60000000Y-144120000D02*
X60000000Y-143350000D01*
X58630000Y-136810000D02*
X61370000Y-136810000D01*
X61370000Y-143350000D01*
X58630000Y-143350000D01*
X58630000Y-136810000D01*
%TO.C,U2*%
X40287500Y-30000000D02*
X59287500Y-30000000D01*
X59287500Y-30000000D02*
X59287500Y-60000000D01*
X59287500Y-60000000D02*
X40287500Y-60000000D01*
X40287500Y-60000000D02*
X40287500Y-30000000D01*
D12*
X60087500Y-32300000D02*
G75*
G02*
X59487500Y-32300000I-300000J0D01*
G01*
X59487500Y-32300000D02*
G75*
G02*
X60087500Y-32300000I300000J0D01*
G01*
%TO.C,U3*%
D11*
X94745000Y-30000000D02*
X113745000Y-30000000D01*
X113745000Y-30000000D02*
X113745000Y-60000000D01*
X113745000Y-60000000D02*
X94745000Y-60000000D01*
X94745000Y-60000000D02*
X94745000Y-30000000D01*
D12*
X114545000Y-32300000D02*
G75*
G02*
X113945000Y-32300000I-300000J0D01*
G01*
X113945000Y-32300000D02*
G75*
G02*
X114545000Y-32300000I300000J0D01*
G01*
%TO.C,U1*%
D11*
X64050000Y-29500000D02*
X85050000Y-29500000D01*
X85050000Y-29500000D02*
X85050000Y-80500000D01*
X85050000Y-80500000D02*
X64050000Y-80500000D01*
X64050000Y-80500000D02*
X64050000Y-29500000D01*
D12*
X64550000Y-30870000D02*
G75*
G02*
X63750000Y-30870000I-400000J0D01*
G01*
X63750000Y-30870000D02*
G75*
G02*
X64550000Y-30870000I400000J0D01*
G01*
%TD*%
M02*
