%TF.GenerationSoftware,KiCad,Pcbnew,10.0.3*%
%TF.CreationDate,2026-05-27T18:36:27+01:00*%
%TF.ProjectId,ODJController,4f444a43-6f6e-4747-926f-6c6c65722e6b,rev?*%
%TF.SameCoordinates,Original*%
%TF.FileFunction,Soldermask,Bot*%
%TF.FilePolarity,Negative*%
%FSLAX46Y46*%
G04 Gerber Fmt 4.6, Leading zero omitted, Abs format (unit mm)*
G04 Created by KiCad (PCBNEW 10.0.3) date 2026-05-27 18:36:27*
%MOMM*%
%LPD*%
G01*
G04 APERTURE LIST*
G04 Aperture macros list*
%AMRoundRect*
0 Rectangle with rounded corners*
0 $1 Rounding radius*
0 $2 $3 $4 $5 $6 $7 $8 $9 X,Y pos of 4 corners*
0 Add a 4 corners polygon primitive as box body*
4,1,4,$2,$3,$4,$5,$6,$7,$8,$9,$2,$3,0*
0 Add four circle primitives for the rounded corners*
1,1,$1+$1,$2,$3*
1,1,$1+$1,$4,$5*
1,1,$1+$1,$6,$7*
1,1,$1+$1,$8,$9*
0 Add four rect primitives between the rounded corners*
20,1,$1+$1,$2,$3,$4,$5,0*
20,1,$1+$1,$4,$5,$6,$7,0*
20,1,$1+$1,$6,$7,$8,$9,0*
20,1,$1+$1,$8,$9,$2,$3,0*%
G04 Aperture macros list end*
%ADD10C,1.600000*%
%ADD11O,1.700000X2.000000*%
%ADD12RoundRect,0.250000X-0.600000X-0.750000X0.600000X-0.750000X0.600000X0.750000X-0.600000X0.750000X0*%
%ADD13O,1.700000X1.950000*%
%ADD14RoundRect,0.250000X-0.600000X-0.725000X0.600000X-0.725000X0.600000X0.725000X-0.600000X0.725000X0*%
%ADD15RoundRect,0.250000X-0.550000X-0.550000X0.550000X-0.550000X0.550000X0.550000X-0.550000X0.550000X0*%
%ADD16R,1.700000X1.700000*%
%ADD17C,1.700000*%
G04 APERTURE END LIST*
D10*
%TO.C,R4*%
X105000000Y-134920000D03*
X105000000Y-145080000D03*
%TD*%
%TO.C,R3*%
X105000000Y-119840000D03*
X105000000Y-130000000D03*
%TD*%
D11*
%TO.C,J30*%
X115000000Y-130000000D03*
D12*
X112500000Y-130000000D03*
%TD*%
D10*
%TO.C,R2*%
X60000000Y-119920000D03*
X60000000Y-130080000D03*
%TD*%
D11*
%TO.C,J21*%
X115000000Y-100000000D03*
D12*
X112500000Y-100000000D03*
%TD*%
D11*
%TO.C,J20*%
X115000000Y-90000000D03*
D12*
X112500000Y-90000000D03*
%TD*%
D11*
%TO.C,J22*%
X115000000Y-110000000D03*
D12*
X112500000Y-110000000D03*
%TD*%
%TO.C,J18*%
X70000000Y-100000000D03*
D11*
X72500000Y-100000000D03*
%TD*%
D12*
%TO.C,J17*%
X70000000Y-90000000D03*
D11*
X72500000Y-90000000D03*
%TD*%
D12*
%TO.C,J19*%
X70000000Y-110000000D03*
D11*
X72500000Y-110000000D03*
%TD*%
D13*
%TO.C,J5*%
X52500000Y-120000000D03*
X50000000Y-120000000D03*
D14*
X47500000Y-120000000D03*
%TD*%
D13*
%TO.C,J8*%
X52500000Y-150000000D03*
X50000000Y-150000000D03*
D14*
X47500000Y-150000000D03*
%TD*%
D13*
%TO.C,J6*%
X52500000Y-130000000D03*
X50000000Y-130000000D03*
D14*
X47500000Y-130000000D03*
%TD*%
D13*
%TO.C,J7*%
X52500000Y-140000000D03*
X50000000Y-140000000D03*
D14*
X47500000Y-140000000D03*
%TD*%
D13*
%TO.C,J2*%
X52500000Y-80000000D03*
X50000000Y-80000000D03*
D14*
X47500000Y-80000000D03*
%TD*%
D13*
%TO.C,J4*%
X52500000Y-100000000D03*
X50000000Y-100000000D03*
D14*
X47500000Y-100000000D03*
%TD*%
D13*
%TO.C,J1*%
X52500000Y-70000000D03*
X50000000Y-70000000D03*
D14*
X47500000Y-70000000D03*
%TD*%
D13*
%TO.C,J3*%
X52500000Y-90000000D03*
X50000000Y-90000000D03*
D14*
X47500000Y-90000000D03*
%TD*%
D13*
%TO.C,J25*%
X52750000Y-110000000D03*
X50250000Y-110000000D03*
X47750000Y-110000000D03*
D14*
X45250000Y-110000000D03*
%TD*%
D10*
%TO.C,C2*%
X90457500Y-42500000D03*
X90457500Y-37500000D03*
%TD*%
D15*
%TO.C,C3*%
X58794888Y-75500000D03*
D10*
X61294888Y-75500000D03*
%TD*%
%TO.C,C1*%
X35500000Y-37000000D03*
X35500000Y-42000000D03*
%TD*%
D12*
%TO.C,J23*%
X70000000Y-120000000D03*
D11*
X72500000Y-120000000D03*
%TD*%
D12*
%TO.C,J24*%
X112500000Y-120000000D03*
D11*
X115000000Y-120000000D03*
%TD*%
D12*
%TO.C,J27*%
X70000000Y-140000000D03*
D11*
X72500000Y-140000000D03*
%TD*%
D12*
%TO.C,J28*%
X70000000Y-130000000D03*
D11*
X72500000Y-130000000D03*
%TD*%
D12*
%TO.C,J29*%
X112500000Y-140000000D03*
D11*
X115000000Y-140000000D03*
%TD*%
D14*
%TO.C,J10*%
X92500000Y-80000000D03*
D13*
X95000000Y-80000000D03*
X97500000Y-80000000D03*
%TD*%
D14*
%TO.C,J11*%
X92500000Y-90000000D03*
D13*
X95000000Y-90000000D03*
X97500000Y-90000000D03*
%TD*%
D14*
%TO.C,J12*%
X92500000Y-100000000D03*
D13*
X95000000Y-100000000D03*
X97500000Y-100000000D03*
%TD*%
D14*
%TO.C,J13*%
X92500000Y-120000000D03*
D13*
X95000000Y-120000000D03*
X97500000Y-120000000D03*
%TD*%
D14*
%TO.C,J9*%
X92500000Y-70000000D03*
D13*
X95000000Y-70000000D03*
X97500000Y-70000000D03*
%TD*%
D14*
%TO.C,J16*%
X92500000Y-150000000D03*
D13*
X95000000Y-150000000D03*
X97500000Y-150000000D03*
%TD*%
D14*
%TO.C,J14*%
X92500000Y-130000000D03*
D13*
X95000000Y-130000000D03*
X97500000Y-130000000D03*
%TD*%
D14*
%TO.C,J15*%
X92500000Y-140000000D03*
D13*
X95000000Y-140000000D03*
X97500000Y-140000000D03*
%TD*%
D14*
%TO.C,J26*%
X90000000Y-110000000D03*
D13*
X92500000Y-110000000D03*
X95000000Y-110000000D03*
X97500000Y-110000000D03*
%TD*%
D16*
%TO.C,J32*%
X82500000Y-88690000D03*
D17*
X82500000Y-91230000D03*
X82500000Y-93770000D03*
X82500000Y-96310000D03*
%TD*%
D16*
%TO.C,J31*%
X82500000Y-106070000D03*
D17*
X82500000Y-108610000D03*
X82500000Y-111150000D03*
X82500000Y-113690000D03*
X82500000Y-116230000D03*
X82500000Y-118770000D03*
X82500000Y-121310000D03*
X82500000Y-123850000D03*
X82500000Y-126390000D03*
X82500000Y-128930000D03*
%TD*%
D10*
%TO.C,R1*%
X60000000Y-135000000D03*
X60000000Y-145160000D03*
%TD*%
D16*
%TO.C,U2*%
X58042500Y-32300000D03*
D17*
X58042500Y-34840000D03*
X58042500Y-37380000D03*
X58042500Y-39920000D03*
X58042500Y-42460000D03*
X58042500Y-45000000D03*
X58042500Y-47540000D03*
X58042500Y-50080000D03*
X58042500Y-52620000D03*
X58042500Y-55160000D03*
X58042500Y-57700000D03*
X41532500Y-34840000D03*
X41532500Y-37380000D03*
X41532500Y-39920000D03*
X41532500Y-42460000D03*
X41532500Y-45000000D03*
X41532500Y-47540000D03*
X41532500Y-50080000D03*
X41532500Y-52620000D03*
%TD*%
D16*
%TO.C,U3*%
X112500000Y-32300000D03*
D17*
X112500000Y-34840000D03*
X112500000Y-37380000D03*
X112500000Y-39920000D03*
X112500000Y-42460000D03*
X112500000Y-45000000D03*
X112500000Y-47540000D03*
X112500000Y-50080000D03*
X112500000Y-52620000D03*
X112500000Y-55160000D03*
X112500000Y-57700000D03*
X95990000Y-34840000D03*
X95990000Y-37380000D03*
X95990000Y-39920000D03*
X95990000Y-42460000D03*
X95990000Y-45000000D03*
X95990000Y-47540000D03*
X95990000Y-50080000D03*
X95990000Y-52620000D03*
%TD*%
D16*
%TO.C,U1*%
X65660000Y-30870000D03*
D17*
X65660000Y-33410000D03*
X65660000Y-35950000D03*
X65660000Y-38490000D03*
X65660000Y-41030000D03*
X65660000Y-43570000D03*
X65660000Y-46110000D03*
X65660000Y-48650000D03*
X65660000Y-51190000D03*
X65660000Y-53730000D03*
X65660000Y-56270000D03*
X65660000Y-58810000D03*
X65660000Y-61350000D03*
X65660000Y-63890000D03*
X65660000Y-66430000D03*
X65660000Y-68970000D03*
X65660000Y-71510000D03*
X65660000Y-74050000D03*
X65660000Y-76590000D03*
X65660000Y-79130000D03*
X83440000Y-79130000D03*
X83440000Y-76590000D03*
X83440000Y-74050000D03*
X83440000Y-71510000D03*
X83440000Y-68970000D03*
X83440000Y-66430000D03*
X83440000Y-63890000D03*
X83440000Y-61350000D03*
X83440000Y-58810000D03*
X83440000Y-56270000D03*
X83440000Y-53730000D03*
X83440000Y-51190000D03*
X83440000Y-48650000D03*
X83440000Y-46110000D03*
X83440000Y-43570000D03*
X83440000Y-41030000D03*
X83440000Y-38490000D03*
X83440000Y-35950000D03*
X83440000Y-33410000D03*
X83440000Y-30870000D03*
%TD*%
M02*
